<?xml version="1.0" encoding="UTF-8"?>
<svg width="26px" height="25px" viewBox="0 0 26 25" version="1.1" xmlns="http://www.w3.org/2000/svg" xmlns:xlink="http://www.w3.org/1999/xlink">
    <title>icon – calendar</title>
    <defs>
        <rect id="path-1" x="132" y="106" width="290" height="366" rx="16"></rect>
        <filter x="-0.3%" y="-0.3%" width="100.7%" height="101.1%" filterUnits="objectBoundingBox" id="filter-2">
            <feOffset dx="0" dy="2" in="SourceAlpha" result="shadowOffsetOuter1"></feOffset>
            <feColorMatrix values="0 0 0 0 0   0 0 0 0 0   0 0 0 0 0  0 0 0 0.2 0" type="matrix" in="shadowOffsetOuter1"></feColorMatrix>
        </filter>
    </defs>
    <g id="Symbols" stroke="none" stroke-width="1" fill="none" fill-rule="evenodd">
        <g id="Appscreens-/-2-–-Doctor-pairing-–-appointment" transform="translate(-178.000000, -410.000000)">
            <g>
                <rect id="Frame-–-for-position/scale" x="0" y="0" width="552" height="552"></rect>
                <g id="bg-–-Cream">
                    <use fill="black" fill-opacity="1" filter="url(#filter-2)" xlink:href="#path-1"></use>
                    <use fill="#E7DFDD" fill-rule="evenodd" xlink:href="#path-1"></use>
                </g>
                <g id="Text" transform="translate(151.000000, 208.000000)" stroke="#726776">
                    <g id="Log-in" transform="translate(27.000000, 199.000000)">
                        <g id="icon-–-calendar" transform="translate(0.000000, 3.000000)">
                            <path d="M20.0576,3.0602 L23.5606,3.0602 C24.1266,3.0602 24.5856,3.5192 24.5856,4.0852 L24.5856,23.4102 C24.5856,23.9762 24.1266,24.4352 23.5606,24.4352 L1.5246,24.4352 C0.9586,24.4352 0.4996,23.9762 0.4996,23.4102 L0.4996,4.0852 C0.4996,3.5192 0.9586,3.0602 1.5246,3.0602 L4.9006,3.0602" id="Stroke-1"></path>
                            <line x1="7.3936" y1="3.0602" x2="17.5666" y2="3.0602" id="Stroke-3"></line>
                            <path d="M7.3535,1.5497 L7.3535,4.5797 C7.3535,5.1567 6.8815,5.6287 6.3035,5.6287 L6.0715,5.6287 C5.4945,5.6287 5.0215,5.1567 5.0215,4.5797 L5.0215,1.5497 C5.0215,0.9727 5.4945,0.4997 6.0715,0.4997 L6.3035,0.4997 C6.8815,0.4997 7.3535,0.9727 7.3535,1.5497 Z" id="Stroke-5"></path>
                            <path d="M19.9942,1.5497 L19.9942,4.5797 C19.9942,5.1567 19.5212,5.6287 18.9442,5.6287 L18.7122,5.6287 C18.1352,5.6287 17.6622,5.1567 17.6622,4.5797 L17.6622,1.5497 C17.6622,0.9727 18.1352,0.4997 18.7122,0.4997 L18.9442,0.4997 C19.5212,0.4997 19.9942,0.9727 19.9942,1.5497 Z" id="Stroke-7"></path>
                            <line x1="0.4688" y1="8.2519" x2="24.3648" y2="8.2519" id="Stroke-9"></line>
                            <line x1="5.2876" y1="8.2519" x2="5.2876" y2="24.3599" id="Stroke-11"></line>
                            <line x1="10.106" y1="8.2519" x2="10.106" y2="24.3599" id="Stroke-13"></line>
                            <line x1="14.9248" y1="8.2519" x2="14.9248" y2="24.3599" id="Stroke-15"></line>
                            <line x1="19.7432" y1="8.2519" x2="19.7432" y2="24.3599" id="Stroke-17"></line>
                            <line x1="0.7393" y1="20.3393" x2="24.6353" y2="20.3393" id="Stroke-19"></line>
                            <line x1="0.7393" y1="16.2936" x2="24.6353" y2="16.2936" id="Stroke-21"></line>
                            <line x1="0.7393" y1="12.248" x2="24.6353" y2="12.248" id="Stroke-23"></line>
                        </g>
                    </g>
                </g>
            </g>
        </g>
    </g>
</svg>