<svg version="1.1" id="Layer_2" xmlns="http://www.w3.org/2000/svg" xmlns:xlink="http://www.w3.org/1999/xlink" x="0px" y="0px"
	 width="27px" height="31px" viewBox="0 0 27 31" style="enable-background:new 0 0 27 31;" xml:space="preserve">
<path fill="#fbd8d9" d="M14.1,30.7c0,0-0.2-6.6-0.2-6.9c0-0.3,0-0.7,0.7-0.7c0.7,0.1,6.3,0.8,6.3,0.8s-0.3-1.3-0.5-1.7c-0.2-0.5-0.2-0.8,0.4-1.3
	c0.6-0.5,6.4-5.4,6.4-5.4s-1-0.4-1.4-0.7c-0.4-0.2-0.4-0.4-0.3-0.9c0.1-0.5,1.2-4.2,1.2-4.2s-2.9,0.7-3.6,0.8
	c-0.7,0.2-0.8-0.1-1-0.6c-0.1-0.5-0.4-1.6-0.4-1.6s-2.2,2.6-3,3.5c-0.7,0.8-1.3,0-1.1-0.8c0.2-0.8,1.3-7,1.3-7s-1.4,0.7-1.9,1
	c-0.5,0.2-0.8,0.2-1.1-0.3c-0.3-0.5-2.3-4.5-2.3-4.5s-2.1,4.1-2.3,4.5c-0.3,0.5-0.7,0.5-1.1,0.3c-0.5-0.3-1.9-1-1.9-1s1.1,6.2,1.3,7
	c0.2,0.8-0.3,1.6-1.1,0.8c-0.8-0.9-3-3.5-3-3.5S5.2,9.5,5.1,10c-0.1,0.5-0.3,0.8-1,0.6c-0.7-0.2-3.6-0.8-3.6-0.8s1.1,3.8,1.2,4.2
	c0.1,0.5,0.1,0.7-0.3,0.9C1,15.2,0,15.6,0,15.6s5.8,4.9,6.4,5.4c0.6,0.5,0.6,0.8,0.4,1.3C6.6,22.7,6.2,24,6.2,24s5.6-0.7,6.3-0.8
	c0.7-0.1,0.7,0.3,0.7,0.7c0,0.3-0.2,6.9-0.2,6.9H14.1z"/>
</svg>
