<?xml version="1.0" encoding="UTF-8"?>
<svg width="28px" height="22px" viewBox="0 0 28 22" version="1.1" xmlns="http://www.w3.org/2000/svg" xmlns:xlink="http://www.w3.org/1999/xlink">
    <title>icon – quotation left</title>
    <g id="09-Quote-&amp;-Media-Coverage" stroke="none" stroke-width="1" fill="none" fill-rule="evenodd">
        <g id="375-Small-–-01" transform="translate(-173.000000, -180.000000)">
            <rect id="bg-–-White" fill="#FFFFFF" x="0" y="0" width="375" height="567"></rect>
            <g id="Quote" transform="translate(20.000000, 141.000000)">
                <rect id="bg-–-Turquoise-25%-tint" fill="#EDF6F4" x="0" y="0" width="337" height="376" rx="8"></rect>
                <g id="icons" transform="translate(153.000000, 39.000000)" fill="#4BAEB3">
                    <path d="M22.4192645,22 C20.5573643,22 19.1294109,21.3059283 18.1324254,19.9187722 C17.1354399,18.531616 16.6369472,16.7149845 16.6369472,14.4688776 C16.6369472,11.0992236 17.5346313,8.17582911 19.3290066,5.69869407 C21.1223889,3.22057174 23.2484307,1.32298165 25.708125,0 L27.6018016,2.57685231 C24.2126467,5.28699008 22.4838103,8.06130234 22.4192645,10.9007764 C23.9465191,10.7023291 25.2582899,11.1160077 26.3565628,12.1398375 C27.4508636,13.1646547 28,14.5350267 28,16.2519409 C28,17.9708298 27.4677448,19.3579859 26.4052204,20.4143966 C25.341703,21.4717946 24.012058,22 22.4192645,22 M5.78033124,22 C3.91942405,22 2.49147072,21.3059283 1.49448523,19.9187722 C0.498492747,18.531616 0,16.7149845 0,14.4688776 C0,11.0992236 0.896691137,8.17582911 2.69106643,5.69869407 C4.4844487,3.22057174 6.61049048,1.32298165 9.07018477,0 L10.9628684,2.57685231 C7.57569954,5.28699008 5.84686314,8.06130234 5.78033124,10.9007764 C7.30857893,10.7023291 8.62034968,11.1160077 9.71762954,12.1398375 C10.8129234,13.1646547 11.3620598,14.5350267 11.3620598,16.2519409 C11.3620598,17.9708298 10.8476788,19.3579859 9.81693088,20.4143966 C8.78618293,21.4717946 7.4396567,22 5.78033124,22" id="icon-–-quotation-left"></path>
                </g>
            </g>
        </g>
    </g>
</svg>