<svg height="92" viewBox="0 0 90 92" width="90" xmlns="http://www.w3.org/2000/svg" xmlns:xlink="http://www.w3.org/1999/xlink"><mask id="a" fill="#fff"><path d="m.0004 0h82c4.418 0 8 3.6616 8 8.17777778v83.82222222z" fill="#fff" fill-rule="evenodd"/></mask><g fill="none" fill-rule="evenodd"><path d="m0 0 90 92v-92z" fill="#4baeb3" mask="url(#a)"/><path d="m54.642 31.3671956c0-1.9626667 1.556-3.5532445 3.476-3.5532445s3.476 1.5905778 3.476 3.5532445v5.5210222c0 2.1804 1.73 3.9488444 3.863 3.9488444 2.134 0 3.864-1.7684444 3.864-3.9488444v-7.3201334" stroke="#fff" stroke-linecap="round" stroke-linejoin="round"/><path d="m66.0492 11.4865067c0 .5888-.467 1.0661777-1.043 1.0661777-.575 0-1.043-.4773777-1.043-1.0661777s.468-1.0661778 1.043-1.0661778c.576 0 1.043.4773778 1.043 1.0661778" fill="#fff"/><path d="m66.0492 11.4865067c0 .5888-.467 1.0661777-1.043 1.0661777-.575 0-1.043-.4773777-1.043-1.0661777s.468-1.0661778 1.043-1.0661778c.576 0 1.043.4773778 1.043 1.0661778z" stroke="#fff" stroke-linecap="round" stroke-linejoin="round"/><path d="m57.3695 34.1560222c0 1.5404889-1.222 2.7886222-2.728 2.7886222s-2.728-1.2481333-2.728-2.7886222 1.222-2.7886222 2.728-2.7886222 2.728 1.2481333 2.728 2.7886222z" stroke="#fff" stroke-linecap="round" stroke-linejoin="round"/><path d="m72.6498 11.6068222c0 .5888.467 1.0661778 1.043 1.0661778s1.043-.4773778 1.043-1.0661778-.467-1.0661778-1.043-1.0661778-1.043.4773778-1.043 1.0661778" fill="#fff"/><g stroke="#fff" stroke-linecap="round" stroke-linejoin="round"><path d="m72.6498 11.6068222c0 .5888.467 1.0661778 1.043 1.0661778s1.043-.4773778 1.043-1.0661778-.467-1.0661778-1.043-1.0661778-1.043.4773778-1.043 1.0661778z"/><path d="m74.7357 11.6068222c1.771 0 3.208 1.4679111 3.208 3.2792889v5.0845333c-.766 2.5269334-8.623 9.5976445-8.623 9.5976445s-7.564-6.8294667-8.624-9.5976445l.059-5.2051555c0-1.8103556 1.436-3.2792889 3.208-3.2792889"/><path d="m77.9437 19.9706444c-.766 2.5269334-3.861 4.7236889-8.623 4.7236889-4.763 0-7.564-1.9555111-8.624-4.7236889"/></g></g></svg>