<?xml version="1.0" encoding="utf-8"?>
<!-- Generator: Adobe Illustrator 24.2.3, SVG Export Plug-In . SVG Version: 6.00 Build 0)  -->
<svg version="1.1" id="Layer_1" xmlns="http://www.w3.org/2000/svg" xmlns:xlink="http://www.w3.org/1999/xlink" x="0px" y="0px"
	 viewBox="0 0 26 26" style="enable-background:new 0 0 26 26;" xml:space="preserve">
<style type="text/css">
	.st0{fill:#CC4C3C;}
</style>
<path class="st0" d="M21.6,4.5c-4.7-4.7-12.3-4.7-16.9,0C0,9.1,0,16.7,4.6,21.4c2.3,2.3,5.4,3.5,8.5,3.5c3.1,0,6.1-1.2,8.5-3.5
	C26.3,16.7,26.3,9.1,21.6,4.5z M20.2,5.9c3.7,3.7,3.9,9.5,0.7,13.4l-14-14C10.7,2,16.5,2.2,20.2,5.9z M6.1,20
	c-3.7-3.7-3.9-9.5-0.7-13.4l14,14C15.5,23.9,9.7,23.7,6.1,20z"/>
</svg>
