<?xml version="1.0" encoding="utf-8"?>
<!-- Generator: Adobe Illustrator 24.1.3, SVG Export Plug-In . SVG Version: 6.00 Build 0)  -->
<svg version="1.1" id="Layer_1" xmlns="http://www.w3.org/2000/svg" xmlns:xlink="http://www.w3.org/1999/xlink" x="0px" y="0px"
	 viewBox="0 0 192 385" style="enable-background:new 0 0 192 385;" xml:space="preserve">
<style type="text/css">
	.st0{opacity:0.5;}
	.st1{fill:none;stroke:#B9B3BA;stroke-width:2;}
	.st2{fill:none;stroke:#B9B3BA;stroke-width:2;stroke-linecap:round;}
</style>
<g id="Phone" transform="translate(271.000000, 88.000000)" class="st0">
	<path id="Stroke-1" class="st1" d="M-104.2-84h-142.61c-5.83,0-11.13,2.39-14.97,6.23S-268-68.64-268-62.81v335.61
		c0,5.83,2.39,11.13,6.23,14.97c3.84,3.84,9.14,6.23,14.97,6.23h142.61c5.83,0,11.13-2.39,14.97-6.23
		c3.84-3.84,6.23-9.14,6.23-14.97V-62.81c0-5.83-2.39-11.13-6.23-14.97S-98.37-84-104.2-84z"/>
	<line id="Stroke-3" class="st2" x1="-148.66" y1="280.92" x2="-202.35" y2="280.92"/>
	<path id="Stroke-5" class="st1" d="M-167.58-67.26h-29.57c-0.89,0-1.61-0.72-1.61-1.61v-0.43c0-0.9,0.74-1.65,1.65-1.65h29.5
		c0.9,0,1.64,0.74,1.64,1.65v0.43C-165.97-67.98-166.69-67.26-167.58-67.26z"/>
	<path id="Stroke-7" class="st1" d="M-152.25-69.1c0,1.78-1.44,3.22-3.22,3.22c-1.78,0-3.22-1.44-3.22-3.22
		c0-1.78,1.44-3.22,3.22-3.22C-153.69-72.32-152.25-70.88-152.25-69.1z"/>
</g>
</svg>
