<svg version="1.1" id="Layer_1" xmlns="http://www.w3.org/2000/svg" x="0" y="0" viewBox="0 0 277 242" xml:space="preserve" enable-background="new 0 0 277 242"><style>.st1{enable-background:new}.st2{fill:#fff}.st3{fill:none;stroke:#e47862}.st4{fill:#e47862}.st5{fill-rule:evenodd;clip-rule:evenodd;fill:#c9c9cf}.st6{fill:#726776}.st7{fill-rule:evenodd;clip-rule:evenodd;fill:#e3f1ed}.st8{fill:#bbbbc3}</style><filter filterUnits="objectBoundingBox" height="106.7%" id="filter-2" width="103.3%" x="-1.7%" y="-1.7%"><feOffset dy="2" in="SourceAlpha" result="shadowOffsetOuter1"/><feColorMatrix in="shadowOffsetOuter1" values="0 0 0 0 0   0 0 0 0 0   0 0 0 0 0  0 0 0 0.2 0"/></filter><g id="Symbols"><g id="Appscreens-_x2F_-1-_x2013_-Request-_x2013_-appointment" transform="translate(-43 -207)"><g id="Group" transform="translate(44 207)"><g id="Buttons-_x2013_-time-slots" transform="translate(0 197)"><g id="Time-3-_x2013_-selected" transform="translate(190)"><path id="Rectangle" d="M4 0h77c2.2 0 4 1.8 4 4v36c0 2.2-1.8 4-4 4H4c-2.2 0-4-1.8-4-4V4c0-2.2 1.8-4 4-4z" fill-rule="evenodd" clip-rule="evenodd" fill="#e47862" stroke="#e47862"/><g class="st1"><path class="st2" d="M17.1 15.4h6.4v1.1c-2.3 2.2-3.5 5-3.6 8.5h-1.6c0-1 .1-1.9.3-2.8.2-.9.4-1.7.8-2.3.3-.7.6-1.2.9-1.7.3-.5.6-.9 1-1.3h-4.2v-1.5zM26 19.1c-.2.2-.4.3-.7.3-.3 0-.5-.1-.7-.3-.2-.2-.3-.4-.3-.7 0-.3.1-.5.3-.7.2-.2.4-.3.7-.3.3 0 .5.1.7.3.2.2.3.4.3.7 0 .3-.1.5-.3.7zm0 5.7c-.2.2-.4.3-.7.3-.3 0-.5-.1-.7-.3-.2-.2-.3-.4-.3-.7 0-.3.1-.5.3-.7.2-.2.4-.3.7-.3.3 0 .5.1.7.3.2.2.3.4.3.7 0 .3-.1.5-.3.7zM32.8 19.9c.5.2.9.5 1.2.9.3.4.4.9.4 1.5 0 .8-.3 1.5-.9 2.1-.6.5-1.4.8-2.4.8s-1.9-.3-2.4-.8c-.6-.6-.9-1.3-.9-2.2h1.5c0 .5.2.9.5 1.2.3.3.7.5 1.3.5.5 0 .9-.1 1.2-.4.3-.3.5-.7.5-1.1 0-.5-.2-.8-.5-1.1-.3-.3-.8-.4-1.3-.4h-.5v-1.3h.5c.5 0 .8-.1 1.1-.4.3-.2.4-.6.4-1s-.1-.7-.4-1-.6-.4-1-.4-.8.1-1 .4-.4.6-.5 1h-1.5c0-.8.3-1.4.9-2 .6-.5 1.3-.8 2.2-.8.8 0 1.5.2 2 .7.5.5.8 1.1.8 1.8 0 .9-.4 1.6-1.2 2.1v-.1zM39.7 25.2c-1.1 0-2-.4-2.7-1.3-.7-.8-1-2.1-1-3.7s.3-2.8 1-3.7c.7-.8 1.5-1.3 2.7-1.3 1.1 0 2 .4 2.6 1.3.7.8 1 2.1 1 3.7s-.3 2.9-1 3.7c-.6.8-1.5 1.3-2.6 1.3zm0-1.5c.6 0 1-.3 1.4-.9.3-.6.5-1.4.5-2.6s-.2-2-.5-2.6c-.3-.6-.8-.9-1.4-.9s-1 .3-1.4.9c-.3.6-.5 1.5-.5 2.6 0 1.2.2 2 .5 2.6.3.6.8.9 1.4.9zM53 14.5c1.1 0 1.9.3 2.5.9.6.6.9 1.4.9 2.4s-.3 1.8-.9 2.4c-.6.5-1.5.8-2.6.8h-2.2v4h-1.5V14.5H53zm-.2 5.1c.7 0 1.2-.2 1.5-.5.4-.3.5-.8.5-1.4 0-.6-.2-1-.5-1.3-.4-.3-.8-.5-1.4-.5h-2.2v3.6h2.1zM68.7 14.5V25h-1.6v-8H67l-2.9 7.1h-1.7L59.6 17h-.2v8h-1.6V14.5H60l3.1 7.6h.1l3.1-7.6h2.4z"/></g></g><g id="Time-2" transform="translate(95)"><path id="Rectangle_1_" class="st3" d="M4 0h77c2.2 0 4 1.8 4 4v36c0 2.2-1.8 4-4 4H4c-2.2 0-4-1.8-4-4V4c0-2.2 1.8-4 4-4z"/><g class="st1"><path class="st4" d="M20.4 18.9c.7 0 1.4.3 2 .8.6.6.9 1.3.9 2.2 0 .9-.3 1.7-.9 2.3-.6.6-1.4.9-2.4.9s-1.8-.3-2.4-.9c-.6-.6-.9-1.4-.9-2.4 0-.5.1-1.1.3-1.6s.5-1.1.9-1.7l2.1-3.2h1.9l-2.7 3.9c.2-.2.6-.3 1.2-.3zm-1.7 4.4c.3.4.8.5 1.3.5s1-.2 1.3-.5c.3-.4.5-.8.5-1.3s-.2-.9-.5-1.3c-.3-.3-.8-.5-1.3-.5s-1 .2-1.3.5c-.3.3-.5.8-.5 1.3s.1.9.5 1.3zM26.5 19.1c-.2.2-.4.3-.7.3s-.5-.1-.7-.3c-.2-.2-.3-.4-.3-.7 0-.3.1-.5.3-.7.2-.2.4-.3.7-.3s.5.1.7.3c.2.2.3.4.3.7-.1.3-.1.5-.3.7zm0 5.7c-.2.2-.4.3-.7.3s-.5-.1-.7-.3c-.2-.2-.3-.4-.3-.7 0-.3.1-.5.3-.7.2-.2.4-.3.7-.3s.5.1.7.3c.2.2.3.4.3.7-.1.3-.1.5-.3.7zM35.6 21.6v1.3h-1.7V25h-1.5v-2.1h-4.5v-1l4.1-6.6h1.9v6.2h1.7zm-5.8 0h2.6v-4.3h-.1l-2.5 4.3zM40.6 18.6c1 0 1.7.3 2.3.9.6.6.8 1.4.8 2.4s-.3 1.7-1 2.3-1.5.9-2.4.9c-1 0-1.8-.3-2.4-.9-.6-.5-.9-1.2-.9-2.1h1.6c0 .5.2.9.5 1.2s.7.5 1.2.5 1-.2 1.3-.5.5-.8.5-1.3c0-.6-.2-1-.5-1.4-.3-.4-.8-.6-1.3-.6-.8 0-1.4.3-1.8.9l-1.4-.4.5-5.1h5.6v1.5H39l-.3 2.4c.6-.5 1.2-.7 1.9-.7zM53.4 14.5c1.1 0 1.9.3 2.5.9.6.6.9 1.4.9 2.4s-.3 1.8-.9 2.4c-.6.6-1.5.9-2.6.9h-2.2v4h-1.5V14.5h3.8zm-.2 5.1c.7 0 1.2-.2 1.5-.5.4-.3.5-.8.5-1.4 0-.6-.2-1-.5-1.3-.4-.3-.8-.5-1.4-.5h-2.2v3.6h2.1zM69.2 14.5V25h-1.6v-8h-.1l-2.9 7.1h-1.7L60.1 17h-.2v8h-1.6V14.5h2.2l3.1 7.6h.1l3.1-7.6h2.4z"/></g></g><g id="Time-1"><path id="Rectangle_2_" class="st3" d="M4 0h77c2.2 0 4 1.8 4 4v36c0 2.2-1.8 4-4 4H4c-2.2 0-4-1.8-4-4V4c0-2.2 1.8-4 4-4z"/><g class="st1"><path class="st4" d="M20 18.9c.7 0 1.4.3 2 .8.6.6.9 1.3.9 2.2 0 .9-.3 1.7-.9 2.3-.6.6-1.4.9-2.4.9s-1.8-.3-2.4-.9c-.6-.6-.9-1.4-.9-2.4 0-.5.1-1.1.3-1.6s.5-1.1.9-1.7l2.1-3.2h1.9l-2.7 3.9c.2-.2.6-.3 1.2-.3zm-1.8 4.4c.3.4.8.5 1.3.5s1-.2 1.3-.5c.3-.4.5-.8.5-1.3s-.2-.9-.5-1.3c-.3-.3-.8-.5-1.3-.5s-1 .2-1.3.5c-.3.3-.5.8-.5 1.3s.2.9.5 1.3zM26 19.1c-.2.2-.4.3-.7.3s-.5-.1-.7-.3c-.2-.2-.3-.4-.3-.7 0-.3.1-.5.3-.7.2-.2.4-.3.7-.3s.5.1.7.3c.2.2.3.4.3.7 0 .3-.1.5-.3.7zm0 5.7c-.2.2-.4.3-.7.3s-.5-.1-.7-.3c-.2-.2-.3-.4-.3-.7 0-.3.1-.5.3-.7.2-.2.4-.3.7-.3s.5.1.7.3c.2.2.3.4.3.7 0 .3-.1.5-.3.7zM31.7 25.2c-1.1 0-2-.4-2.7-1.3-.7-.8-1-2.1-1-3.7s.3-2.8 1-3.7c.7-.8 1.5-1.3 2.7-1.3 1.1 0 2 .4 2.6 1.3.7.8 1 2.1 1 3.7s-.3 2.9-1 3.7c-.6.8-1.5 1.3-2.6 1.3zm0-1.5c.6 0 1-.3 1.4-.9.3-.6.5-1.4.5-2.6s-.2-2-.5-2.6c-.3-.6-.8-.9-1.4-.9-.6 0-1 .3-1.4.9-.3.6-.5 1.5-.5 2.6 0 1.2.2 2 .5 2.6s.8.9 1.4.9zM40.5 25.2c-1.1 0-2-.4-2.7-1.3-.7-.8-1-2.1-1-3.7s.3-2.8 1-3.7c.7-.8 1.5-1.3 2.7-1.3 1.1 0 2 .4 2.6 1.3.7.8 1 2.1 1 3.7s-.3 2.9-1 3.7c-.5.8-1.4 1.3-2.6 1.3zm.1-1.5c.6 0 1-.3 1.4-.9.3-.6.5-1.4.5-2.6s-.2-2-.5-2.6c-.3-.6-.8-.9-1.4-.9s-1 .3-1.4.9c-.3.6-.5 1.5-.5 2.6 0 1.2.2 2 .5 2.6.3.6.8.9 1.4.9zM53.9 14.5c1.1 0 1.9.3 2.5.9.6.6.9 1.4.9 2.4s-.3 1.8-.9 2.4c-.6.6-1.5.9-2.6.9h-2.2v4H50V14.5h3.9zm-.3 5.1c.7 0 1.2-.2 1.5-.5.4-.3.5-.8.5-1.4 0-.6-.2-1-.5-1.3-.4-.3-.8-.5-1.4-.5h-2.2v3.6h2.1zM69.6 14.5V25H68v-8h-.1L65 24.1h-1.7L60.5 17h-.2v8h-1.6V14.5H61l3.1 7.6h.1l3.1-7.6h2.3z"/></g></g></g><g id="Calendar"><g id="Dates"><path id="Fill-1" class="st5" d="M0 101.7h35v-35H0z"/><g class="st1"><path class="st6" d="M14.6 87.5v-5h-1.4v-.9h.7c.6 0 .9-.3.9-.8v-.3h1.1v7h-1.3zM19.5 87.5v-5H18v-.9h.7c.6 0 .9-.3.9-.8v-.3h1.1v7h-1.2z"/></g><path id="Fill-2" class="st5" d="M40 101.7h35v-35H40z"/><g class="st1"><path class="st6" d="M53.3 87.5v-5h-1.4v-.9h.7c.6 0 .9-.3.9-.8v-.3h1.1v7h-1.3zM60.1 84.7c-.5.3-.9.6-1.1.9s-.4.6-.4.9h3.3v1.1h-4.7v-.5c0-1.2.6-2.2 1.9-3 .7-.5 1.2-.8 1.3-.9.2-.2.3-.5.3-.7 0-.3-.1-.5-.3-.7-.2-.2-.5-.3-.8-.3-.4 0-.7.1-.9.4-.2.3-.3.6-.3 1h-1.2c0-.6.2-1.2.6-1.7.4-.5 1-.7 1.8-.7.7 0 1.2.2 1.6.5.4.4.6.9.6 1.5 0 .5-.1.9-.4 1.2-.3.2-.7.6-1.3 1z"/></g><path id="Fill-3" class="st5" d="M80 101.7h35v-35H80z"/><g class="st1"><path class="st6" d="M93.3 87.5v-5h-1.4v-.9h.7c.6 0 .9-.3.9-.8v-.3h1.1v7h-1.3zM100.6 83.8c.4.1.7.3.9.6.2.3.3.7.3 1.1 0 .6-.2 1.1-.7 1.5-.4.4-1 .6-1.8.6s-1.4-.2-1.8-.6c-.4-.4-.7-1-.7-1.6H98c0 .3.2.6.4.9.2.2.5.3.9.3s.7-.1.9-.3c.2-.2.4-.5.4-.8 0-.3-.1-.6-.3-.8-.2-.2-.6-.3-1-.3h-.4v-1h.4c.3 0 .6-.1.8-.3.2-.2.3-.4.3-.7 0-.3-.1-.5-.3-.7s-.4-.3-.8-.3c-.3 0-.6.1-.8.3-.2.2-.3.4-.3.7h-1.1c0-.6.2-1.1.7-1.4.4-.4 1-.6 1.6-.6.6 0 1.1.2 1.5.5s.6.8.6 1.3c0 .7-.3 1.2-.9 1.6z"/></g><path id="Fill-4" class="st5" d="M120 101.7h35v-35h-35z"/><g class="st1"><path class="st6" d="M133.2 87.5v-5h-1.4v-.9h.7c.6 0 .9-.3.9-.8v-.3h1.1v7h-1.3zM142.1 85v1h-1.2v1.5h-1.1V86h-3.3v-.7l3-4.8h1.4V85h1.2zm-4.3 0h1.9v-3.1h-.1l-1.8 3.1z"/></g><path id="Fill-5" class="st7" d="M160 101.7h35v-35h-35z"/><g class="st1"><path class="st6" d="M173.7 87.5v-5h-1.4v-.9h.7c.6 0 .9-.3.9-.8v-.3h1.1v7h-1.3zM180.1 82.9c.7 0 1.3.2 1.7.7.4.4.6 1 .6 1.7s-.2 1.3-.7 1.7c-.5.4-1.1.7-1.8.7s-1.3-.2-1.8-.6-.7-1-.7-1.6h1.2c0 .4.2.7.4.9.2.2.5.3.9.3s.7-.1 1-.4c.2-.2.4-.6.4-1s-.1-.8-.4-1-.6-.4-.9-.4c-.6 0-1 .2-1.3.7l-1-.3.4-3.7h4.1v1.1h-3.1l-.2 1.8c.2-.5.6-.6 1.2-.6z"/></g><path id="Fill-6" class="st7" d="M200 101.7h35v-35h-35z"/><g class="st1"><path class="st6" d="M213.4 87.5v-5H212v-.9h.7c.6 0 .9-.3.9-.8v-.3h1.1v7h-1.3zM219.7 83.1c.5 0 1 .2 1.5.6.4.4.6 1 .6 1.6 0 .7-.2 1.2-.7 1.7-.5.4-1 .6-1.7.6s-1.3-.2-1.8-.7c-.4-.4-.7-1-.7-1.8 0-.4.1-.8.2-1.1.1-.4.4-.8.7-1.2l1.5-2.3h1.4l-2 2.8c.3-.2.6-.2 1-.2zm-1.2 3.2c.2.3.6.4.9.4.4 0 .7-.1.9-.4s.4-.6.4-1-.1-.7-.4-.9-.6-.4-1-.4-.7.1-1 .4-.4.6-.4.9c.2.4.3.7.6 1z"/></g><path id="Fill-7" class="st7" d="M240 101.7h35v-35h-35z"/><g class="st1"><path class="st6" d="M253.8 87.5v-5h-1.4v-.9h.7c.6 0 .9-.3.9-.8v-.3h1.1v7h-1.3zM257.5 80.5h4.7v.8c-1.7 1.6-2.6 3.7-2.6 6.2h-1.2c0-.7.1-1.4.2-2 .1-.6.3-1.2.5-1.7s.4-.9.7-1.3c.2-.4.5-.7.7-.9h-3v-1.1z"/></g><path id="Fill-8" class="st7" d="M0 141.7h35v-35H0z"/><g class="st1"><path class="st6" d="M13.6 127.5v-5h-1.4v-.9h.7c.6 0 .9-.3.9-.8v-.3h1.1v7h-1.3zM21 123.7c.4.1.7.4 1 .7s.4.7.4 1.1c0 .6-.2 1.1-.7 1.5s-1.1.6-1.8.6c-.8 0-1.4-.2-1.8-.6-.5-.4-.7-.9-.7-1.5 0-.5.1-.9.4-1.2.3-.3.6-.5.9-.7v-.1c-.3-.1-.5-.3-.7-.6-.2-.3-.3-.6-.3-.9 0-.5.2-1 .6-1.3.4-.3.9-.5 1.5-.5s1.1.2 1.5.5c.4.3.6.8.6 1.3 0 .3-.1.6-.3.9-.1.4-.3.6-.6.8zm-2.1 2.6c.2.2.5.3.9.3s.7-.1.9-.3c.2-.2.4-.5.4-.8 0-.3-.1-.6-.4-.9s-.6-.4-.9-.4-.7.1-.9.4-.3.5-.3.9c-.1.4.1.6.3.8zm1.7-4.7c-.2-.2-.5-.3-.8-.3-.3 0-.6.1-.8.3-.2.2-.3.4-.3.7 0 .3.1.5.3.7s.5.3.7.3c.3 0 .5-.1.7-.3.2-.2.3-.4.3-.7.2-.3.1-.6-.1-.7z"/></g><path id="Fill-9" class="st7" d="M40 141.7h35v-35H40z"/><g class="st1"><path class="st6" d="M53.4 127.5v-5H52v-.9h.7c.6 0 .9-.3.9-.8v-.3h1.1v7h-1.3zM59.1 125c-.5 0-1-.2-1.5-.6s-.6-1-.6-1.6c0-.7.2-1.2.7-1.7.5-.4 1-.6 1.7-.6s1.3.2 1.8.7c.4.4.7 1 .7 1.8 0 .4-.1.8-.2 1.1-.2.4-.4.8-.7 1.2l-1.5 2.3h-1.4l2-2.8c-.2.1-.6.2-1 .2zm1.3-3.2c-.2-.3-.6-.4-.9-.4s-.7.1-.9.4-.4.6-.4 1 .1.7.4.9c.2.3.6.4 1 .4s.7-.1 1-.4.4-.6.4-.9c-.2-.4-.4-.7-.6-1z"/></g><path id="Fill-10" class="st7" d="M80 141.7h35v-35H80z"/><g class="st1"><path class="st6" d="M94.1 124.7c-.5.3-.9.6-1.1.9s-.4.6-.4.9h3.3v1.1h-4.7v-.5c0-1.2.6-2.2 1.9-3 .7-.5 1.2-.8 1.3-.9.2-.2.3-.5.3-.7 0-.3-.1-.5-.3-.7-.2-.2-.5-.3-.8-.3-.4 0-.7.1-.9.4-.2.3-.3.6-.3 1h-1.2c0-.6.2-1.2.6-1.7.4-.5 1-.7 1.8-.7.7 0 1.2.2 1.6.5.4.4.6.9.6 1.5 0 .5-.1.9-.4 1.2-.3.2-.7.6-1.3 1zM100.7 127.6c-.8 0-1.5-.3-1.9-.9-.5-.6-.7-1.5-.7-2.7 0-1.2.2-2.1.7-2.7s1.1-.9 1.9-.9 1.5.3 1.9.9.7 1.5.7 2.7c0 1.2-.2 2.1-.7 2.7-.5.6-1.1.9-1.9.9zm0-1c.4 0 .8-.2 1-.6.2-.4.4-1.1.4-1.9 0-.9-.1-1.5-.4-1.9-.2-.4-.6-.6-1-.6s-.8.2-1 .6c-.2.4-.4 1.1-.4 1.9 0 .9.1 1.5.4 1.9.2.3.6.6 1 .6z"/></g><path id="Fill-11" class="st7" d="M120 141.7h35v-35h-35z"/><g class="st1"><path class="st6" d="M135.2 124.7c-.5.3-.9.6-1.1.9s-.4.6-.4.9h3.3v1.1h-4.7v-.5c0-1.2.6-2.2 1.9-3 .7-.5 1.2-.8 1.3-.9.2-.2.3-.5.3-.7 0-.3-.1-.5-.3-.7-.2-.2-.5-.3-.8-.3-.4 0-.7.1-.9.4-.2.3-.3.6-.3 1h-1.2c0-.6.2-1.2.6-1.7.4-.5 1-.7 1.8-.7.7 0 1.2.2 1.6.5.4.4.6.9.6 1.5 0 .5-.1.9-.4 1.2-.2.2-.7.6-1.3 1zM140.4 127.5v-5H139v-.9h.7c.6 0 .9-.3.9-.8v-.3h1.1v7h-1.3z"/></g><path id="Fill-12" class="st7" d="M160 141.7h35v-35h-35z"/><g class="st1"><path class="st6" d="M174.1 124.7c-.5.3-.9.6-1.1.9-.2.3-.4.6-.4.9h3.3v1.1h-4.7v-.5c0-1.2.6-2.2 1.9-3 .7-.5 1.2-.8 1.3-.9.2-.2.3-.5.3-.7 0-.3-.1-.5-.3-.7-.2-.2-.5-.3-.8-.3-.4 0-.7.1-.9.4-.2.3-.3.6-.3 1h-1.2c0-.6.2-1.2.6-1.7.4-.5 1-.7 1.8-.7.7 0 1.2.2 1.6.5.4.4.6.9.6 1.5 0 .5-.1.9-.4 1.2s-.7.6-1.3 1zM181.1 124.7c-.5.3-.9.6-1.1.9-.2.3-.4.6-.4.9h3.3v1.1h-4.7v-.5c0-1.2.6-2.2 1.9-3 .7-.5 1.2-.8 1.3-.9.2-.2.3-.5.3-.7 0-.3-.1-.5-.3-.7-.2-.2-.5-.3-.8-.3-.4 0-.7.1-.9.4-.2.3-.3.6-.3 1h-1.2c0-.6.2-1.2.6-1.7.4-.5 1-.7 1.8-.7.7 0 1.2.2 1.6.5.4.4.6.9.6 1.5 0 .5-.1.9-.4 1.2s-.7.6-1.3 1z"/></g><path id="Fill-13" class="st7" d="M200 141.7h35v-35h-35z"/><g class="st1"><path class="st6" d="M214.1 124.7c-.5.3-.9.6-1.1.9-.2.3-.4.6-.4.9h3.3v1.1h-4.7v-.5c0-1.2.6-2.2 1.9-3 .7-.5 1.2-.8 1.3-.9.2-.2.3-.5.3-.7 0-.3-.1-.5-.3-.7-.2-.2-.5-.3-.8-.3-.4 0-.7.1-.9.4-.2.3-.3.6-.3 1h-1.2c0-.6.2-1.2.6-1.7.4-.5 1-.7 1.8-.7.7 0 1.2.2 1.6.5.4.4.6.9.6 1.5 0 .5-.1.9-.4 1.2-.2.2-.7.6-1.3 1zM221.6 123.8c.4.1.7.3.9.6.2.3.3.7.3 1.1 0 .6-.2 1.1-.7 1.5s-1 .6-1.8.6-1.4-.2-1.8-.6c-.4-.4-.7-1-.7-1.6h1.1c0 .3.2.6.4.9.2.2.5.3.9.3s.7-.1.9-.3c.2-.2.4-.5.4-.8 0-.3-.1-.6-.3-.8-.2-.2-.6-.3-1-.3h-.4v-1h.4c.3 0 .6-.1.8-.3.2-.2.3-.4.3-.7 0-.3-.1-.5-.3-.7-.2-.2-.4-.3-.8-.3-.3 0-.6.1-.8.3-.2.2-.3.4-.3.7H218c0-.6.2-1.1.7-1.4s1-.6 1.6-.6c.6 0 1.1.2 1.5.5.4.3.6.8.6 1.3.1.7-.2 1.2-.8 1.6z"/></g><path id="Fill-14" class="st7" d="M240 141.7h35v-35h-35z"/><g class="st1"><path class="st6" d="M253.9 124.7c-.5.3-.9.6-1.1.9-.2.3-.4.6-.4.9h3.3v1.1H251v-.5c0-1.2.6-2.2 1.9-3 .7-.5 1.2-.8 1.3-.9.2-.2.3-.5.3-.7 0-.3-.1-.5-.3-.7-.2-.2-.5-.3-.8-.3-.4 0-.7.1-.9.4-.2.3-.3.6-.3 1H251c0-.6.2-1.2.6-1.7.4-.5 1-.7 1.8-.7.7 0 1.2.2 1.6.5.4.4.6.9.6 1.5 0 .5-.1.9-.4 1.2s-.7.6-1.3 1zM263 125v1h-1.2v1.5h-1.1V126h-3.3v-.7l3-4.8h1.4v4.5h1.2zm-4.3 0h1.9v-3.1h-.1l-1.8 3.1z"/></g><path id="Fill-15" class="st7" d="M0 181.7h35v-35H0z"/><g class="st1"><path class="st6" d="M14 164.7c-.5.3-.9.6-1.1.9s-.4.6-.4.9h3.3v1.1H11v-.5c0-1.2.6-2.2 1.9-3 .7-.5 1.2-.8 1.3-.9.2-.2.3-.5.3-.7 0-.3-.1-.5-.3-.7-.2-.2-.5-.3-.8-.3-.4 0-.7.1-.9.4-.2.3-.3.6-.3 1H11c0-.6.2-1.2.6-1.7.4-.5 1-.7 1.8-.7.7 0 1.2.2 1.6.5.4.4.6.9.6 1.5 0 .5-.1.9-.4 1.2-.2.2-.6.6-1.2 1zM20.5 162.9c.7 0 1.3.2 1.7.7.4.4.6 1 .6 1.7s-.2 1.3-.7 1.7c-.5.4-1.1.7-1.8.7s-1.3-.2-1.8-.6c-.4-.4-.7-1-.7-1.6H19c0 .4.2.7.4.9.2.2.5.3.9.3s.7-.1 1-.4c.2-.2.4-.6.4-1s-.1-.8-.4-1-.6-.4-.9-.4c-.6 0-1 .2-1.3.7l-1-.3.4-3.7h4.1v1.1h-3.1l-.2 1.8c.2-.5.7-.6 1.2-.6z"/></g><path id="Fill-16" class="st7" d="M40 181.7h35v-35H40z"/><g class="st1"><path class="st6" d="M54.2 164.7c-.5.3-.9.6-1.1.9s-.4.6-.4.9H56v1.1h-4.7v-.5c0-1.2.6-2.2 1.9-3 .7-.5 1.2-.8 1.3-.9.2-.2.3-.5.3-.7 0-.3-.1-.5-.3-.7-.2-.2-.5-.3-.8-.3-.4 0-.7.1-.9.4-.2.3-.3.6-.3 1h-1.2c0-.6.2-1.2.6-1.7.4-.5 1-.7 1.8-.7.7 0 1.2.2 1.6.5.4.4.6.9.6 1.5 0 .5-.1.9-.4 1.2-.3.2-.7.6-1.3 1zM60.7 163.1c.5 0 1 .2 1.5.6.4.4.6 1 .6 1.6 0 .7-.2 1.2-.7 1.7s-1 .6-1.7.6-1.3-.2-1.8-.7c-.4-.4-.7-1-.7-1.8 0-.4.1-.8.2-1.1.1-.4.4-.8.7-1.2l1.5-2.3h1.4l-2 2.8c.2-.2.6-.2 1-.2zm-1.3 3.2c.2.3.6.4.9.4.4 0 .7-.1.9-.4s.4-.6.4-1-.1-.7-.4-.9-.6-.4-1-.4-.7.1-1 .4-.4.6-.4.9c.2.4.4.7.6 1z"/></g><path id="Fill-17" class="st7" d="M80 181.7h35v-35H80z"/><g class="st1"><path class="st6" d="M94.6 164.7c-.5.3-.9.6-1.1.9s-.4.6-.4.9h3.3v1.1h-4.7v-.5c0-1.2.6-2.2 1.9-3 .7-.5 1.2-.8 1.3-.9.2-.2.3-.5.3-.7 0-.3-.1-.5-.3-.7-.2-.2-.5-.3-.8-.3-.4 0-.7.1-.9.4-.2.3-.3.6-.3 1h-1.2c0-.6.2-1.2.6-1.7.4-.5 1-.7 1.8-.7.7 0 1.2.2 1.6.5.4.4.6.9.6 1.5 0 .5-.1.9-.4 1.2-.3.2-.7.6-1.3 1zM98.3 160.5h4.7v.8c-1.7 1.6-2.6 3.7-2.6 6.2h-1.2c0-.7.1-1.4.2-2s.3-1.2.5-1.7.4-.9.7-1.3c.2-.4.5-.7.7-.9h-3v-1.1z"/></g><path id="Fill-18" class="st7" d="M120 181.7h35v-35h-35z"/><g class="st1"><path class="st6" d="M134 164.7c-.5.3-.9.6-1.1.9s-.4.6-.4.9h3.3v1.1H131v-.5c0-1.2.6-2.2 1.9-3 .7-.5 1.2-.8 1.3-.9.2-.2.3-.5.3-.7 0-.3-.1-.5-.3-.7-.2-.2-.5-.3-.8-.3-.4 0-.7.1-.9.4-.2.3-.3.6-.3 1H131c0-.6.2-1.2.6-1.7.4-.5 1-.7 1.8-.7.7 0 1.2.2 1.6.5.4.4.6.9.6 1.5 0 .5-.1.9-.4 1.2-.2.2-.6.6-1.2 1zM141.5 163.7c.4.1.7.4 1 .7.2.3.4.7.4 1.1 0 .6-.2 1.1-.7 1.5-.5.4-1.1.6-1.8.6-.8 0-1.4-.2-1.8-.6s-.7-.9-.7-1.5c0-.5.1-.9.4-1.2.3-.3.6-.5.9-.7v-.1c-.3-.1-.5-.3-.7-.6s-.3-.6-.3-.9c0-.5.2-1 .6-1.3.4-.3.9-.5 1.5-.5s1.1.2 1.5.5c.4.3.6.8.6 1.3 0 .3-.1.6-.3.9-.1.4-.3.6-.6.8zm-2.1 2.6c.2.2.5.3.9.3s.7-.1.9-.3c.2-.2.4-.5.4-.8 0-.3-.1-.6-.4-.9s-.6-.4-.9-.4-.7.1-.9.4c-.2.2-.3.5-.3.9-.1.4 0 .6.3.8zm1.7-4.7c-.2-.2-.5-.3-.8-.3s-.6.1-.8.3c-.2.2-.3.4-.3.7 0 .3.1.5.3.7s.5.3.7.3c.3 0 .5-.1.7-.3.2-.2.3-.4.3-.7.2-.3.1-.6-.1-.7z"/></g><path id="Fill-19" class="st7" d="M160 181.7h35v-35h-35z"/><g class="st1"><path class="st6" d="M174.1 164.7c-.5.3-.9.6-1.1.9-.2.3-.4.6-.4.9h3.3v1.1h-4.7v-.5c0-1.2.6-2.2 1.9-3 .7-.5 1.2-.8 1.3-.9.2-.2.3-.5.3-.7 0-.3-.1-.5-.3-.7-.2-.2-.5-.3-.8-.3-.4 0-.7.1-.9.4-.2.3-.3.6-.3 1h-1.2c0-.6.2-1.2.6-1.7.4-.5 1-.7 1.8-.7.7 0 1.2.2 1.6.5.4.4.6.9.6 1.5 0 .5-.1.9-.4 1.2-.3.2-.7.6-1.3 1zM180.1 165c-.5 0-1-.2-1.5-.6-.4-.4-.6-1-.6-1.6 0-.7.2-1.2.7-1.7s1-.6 1.7-.6 1.3.2 1.8.7c.4.4.7 1 .7 1.8 0 .4-.1.8-.2 1.1-.2.4-.4.8-.7 1.2l-1.5 2.3h-1.4l2-2.8c-.2.1-.6.2-1 .2zm1.3-3.2c-.2-.3-.6-.4-.9-.4s-.7.1-.9.4-.4.6-.4 1 .1.7.4.9c.2.3.6.4 1 .4s.7-.1 1-.4.4-.6.4-.9c-.2-.4-.4-.7-.6-1z"/></g><path id="Fill-20" class="st7" d="M200 181.7h35v-35h-35z"/><g class="st1"><path class="st6" d="M214.6 163.8c.4.1.7.3.9.6.2.3.3.7.3 1.1 0 .6-.2 1.1-.7 1.5-.4.4-1 .6-1.8.6s-1.4-.2-1.8-.6c-.4-.4-.7-1-.7-1.6h1.1c0 .3.2.6.4.9.2.2.5.3.9.3s.7-.1.9-.3.4-.5.4-.8c0-.3-.1-.6-.3-.8-.2-.2-.6-.3-1-.3h-.4v-1h.4c.3 0 .6-.1.8-.3s.3-.4.3-.7c0-.3-.1-.5-.3-.7-.2-.2-.4-.3-.8-.3-.3 0-.6.1-.8.3s-.3.4-.3.7H211c0-.6.2-1.1.7-1.4.4-.4 1-.6 1.6-.6.6 0 1.1.2 1.5.5.4.3.6.8.6 1.3.1.7-.2 1.2-.8 1.6zM220.6 167.6c-.8 0-1.5-.3-1.9-.9-.5-.6-.7-1.5-.7-2.7 0-1.2.2-2.1.7-2.7.5-.6 1.1-.9 1.9-.9.8 0 1.5.3 1.9.9s.7 1.5.7 2.7c0 1.2-.2 2.1-.7 2.7-.4.6-1 .9-1.9.9zm.1-1c.4 0 .8-.2 1-.6.2-.4.4-1.1.4-1.9 0-.9-.1-1.5-.4-1.9s-.6-.6-1-.6-.8.2-1 .6-.4 1.1-.4 1.9c0 .9.1 1.5.4 1.9s.5.6 1 .6z"/></g><path id="Fill-21" class="st7" d="M240 181.7h35v-35h-35z"/><g class="st1"><path class="st6" d="M256 163.8c.4.1.7.3.9.6.2.3.3.7.3 1.1 0 .6-.2 1.1-.7 1.5-.4.4-1 .6-1.8.6s-1.4-.2-1.8-.6c-.4-.4-.7-1-.7-1.6h1.1c0 .3.2.6.4.9.2.2.5.3.9.3s.7-.1.9-.3.4-.5.4-.8c0-.3-.1-.6-.3-.8-.2-.2-.6-.3-1-.3h-.4v-1h.4c.3 0 .6-.1.8-.3s.3-.4.3-.7c0-.3-.1-.5-.3-.7-.2-.2-.4-.3-.8-.3-.3 0-.6.1-.8.3s-.3.4-.3.7h-1.1c0-.6.2-1.1.7-1.4.4-.4 1-.6 1.6-.6.6 0 1.1.2 1.5.5.4.3.6.8.6 1.3.1.7-.2 1.2-.8 1.6zM260.4 167.5v-5H259v-.9h.7c.6 0 .9-.3.9-.8v-.3h1.1v7h-1.3z"/></g><path id="Fill-22" class="st5" d="M0 61.7h35v-35H0z"/><g class="st1"><path class="st6" d="M20.1 45v1h-1.2v1.5h-1.1V46h-3.3v-.7l3-4.8h1.4V45h1.2zm-4.2 0h1.9v-3.1h-.1L15.9 45z"/></g><path id="Fill-23" class="st5" d="M40 61.7h35v-35H40z"/><g class="st1"><path class="st6" d="M57.6 42.9c.7 0 1.3.2 1.7.7.4.4.6 1 .6 1.7s-.2 1.3-.7 1.7c-.5.4-1.1.7-1.8.7s-1.3-.2-1.8-.6c-.4-.4-.7-1-.7-1.6h1.2c0 .4.2.7.4.9.2.2.5.3.9.3s.7-.1 1-.4c.2-.2.4-.6.4-1s-.1-.8-.4-1-.6-.4-.9-.4c-.6 0-1 .2-1.3.7l-1-.3.4-3.7h4.1v1.1h-3.1l-.2 1.8c.2-.5.7-.6 1.2-.6z"/></g><path id="Fill-24" class="st5" d="M80 61.7h35v-35H80z"/><g class="st1"><path class="st6" d="M97.3 43.1c.5 0 1 .2 1.5.6.4.4.6 1 .6 1.6 0 .7-.2 1.2-.7 1.7s-1 .6-1.7.6-1.3-.2-1.8-.7c-.4-.4-.7-1-.7-1.8 0-.4.1-.8.2-1.1.1-.4.4-.8.7-1.2l1.5-2.3h1.4l-2 2.8c.3-.2.6-.2 1-.2zM96 46.3c.2.3.6.4.9.4.4 0 .7-.1.9-.4s.4-.6.4-1-.1-.7-.4-.9-.4-.4-.8-.4-.7.1-1 .4-.4.6-.4.9c.1.4.2.7.4 1z"/></g><path id="Fill-25" class="st5" d="M120 61.7h35v-35h-35z"/><g class="st1"><path class="st6" d="M134.9 40.5h4.7v.8c-1.7 1.6-2.6 3.7-2.6 6.2h-1.2c0-.7.1-1.4.2-2s.3-1.2.5-1.7.4-.9.7-1.3c.2-.4.5-.7.7-.9h-3v-1.1z"/></g><path id="Fill-26" class="st5" d="M160 61.7h35v-35h-35z"/><g class="st1"><path class="st6" d="M178.6 43.7c.4.1.7.4 1 .7.2.3.4.7.4 1.1 0 .6-.2 1.1-.7 1.5-.5.4-1.1.6-1.8.6-.8 0-1.4-.2-1.8-.6s-.7-.9-.7-1.5c0-.5.1-.9.4-1.2s.6-.5.9-.7v-.1c-.3-.1-.5-.3-.7-.6s-.3-.6-.3-.9c0-.5.2-1 .6-1.3.4-.3.9-.5 1.5-.5s1.1.2 1.5.5c.4.3.6.8.6 1.3 0 .3-.1.6-.3.9-.1.4-.4.6-.6.8zm-2.1 2.6c.2.2.5.3.9.3s.7-.1.9-.3c.2-.2.4-.5.4-.8 0-.3-.1-.6-.4-.9s-.6-.4-.9-.4-.7.1-.9.4c-.2.2-.3.5-.3.9-.1.4 0 .6.3.8zm1.6-4.7c-.2-.2-.5-.3-.8-.3s-.6.1-.8.3c-.2.2-.3.4-.3.7 0 .3.1.5.3.7s.5.3.7.3c.3 0 .5-.1.7-.3.2-.2.3-.4.3-.7.2-.3.1-.6-.1-.7z"/></g><path id="Fill-27" class="st5" d="M200 61.7h35v-35h-35z"/><g class="st1"><path class="st6" d="M216.7 45c-.5 0-1-.2-1.5-.6-.4-.4-.6-1-.6-1.6 0-.7.2-1.2.7-1.7s1-.6 1.7-.6 1.3.2 1.8.7c.4.4.7 1 .7 1.8 0 .4-.1.8-.2 1.1-.2.4-.4.8-.7 1.2l-1.5 2.3h-1.4l2-2.8c-.3.1-.6.2-1 .2zm1.3-3.2c-.2-.3-.6-.4-.9-.4s-.7.1-.9.4-.4.6-.4 1 .1.7.4.9c.2.3.6.4 1 .4s.7-.1 1-.4.4-.6.4-.9c-.3-.4-.4-.7-.6-1z"/></g><path id="Fill-28" class="st5" d="M240 61.7h35v-35h-35z"/><g class="st1"><path class="st6" d="M253.3 47.5v-5h-1.4v-.9h.7c.6 0 .9-.3.9-.8v-.3h1.1v7h-1.3zM259.7 47.6c-.8 0-1.5-.3-1.9-.9-.5-.6-.7-1.5-.7-2.7 0-1.2.2-2.1.7-2.7.5-.6 1.1-.9 1.9-.9.8 0 1.5.3 1.9.9s.7 1.5.7 2.7c0 1.2-.2 2.1-.7 2.7-.4.6-1.1.9-1.9.9zm0-1c.4 0 .8-.2 1-.6.2-.4.4-1.1.4-1.9 0-.9-.1-1.5-.4-1.9s-.6-.6-1-.6-.8.2-1 .6-.4 1.1-.4 1.9c0 .9.1 1.5.4 1.9s.6.6 1 .6z"/></g><g class="st1"><path class="st8" d="M19.8 9.1c0 .7-.2 1.2-.7 1.5-.5.3-1.1.5-1.9.5-.9 0-1.6-.2-2-.7-.5-.5-.7-1-.8-1.8h1c0 .5.2.8.5 1.1.3.3.7.4 1.3.4.4 0 .8-.1 1.1-.3.3-.2.4-.5.4-.9s-.1-.6-.4-.9-.6-.3-1.3-.5c-.7-.2-1.3-.5-1.7-.8-.4-.3-.6-.8-.6-1.3 0-.6.2-1.1.7-1.5s1-.6 1.7-.6c.8 0 1.4.2 1.9.7.5.4.7 1 .7 1.6h-1c0-.4-.2-.7-.4-1-.3-.3-.7-.4-1.2-.4-.4 0-.7.1-1 .3-.2.2-.4.5-.4.8 0 .3.1.6.4.8.3.2.7.4 1.3.6.8.3 1.4.6 1.8 1 .4.3.6.8.6 1.4z"/></g><g class="st1"><path class="st8" d="M61.1 3.3V11h-1V4.8H60l-2.2 5.5h-1.1l-2.2-5.5h-.1V11h-1V3.3h1.4l2.4 5.8h.1l2.4-5.8h1.4z"/></g><g class="st1"><path class="st8" d="M100.1 3.3v.9h-2.2V11h-1V4.2h-2.2v-.9h5.4z"/></g><g class="st1"><path class="st8" d="M140.7 3.3h1l-1.6 7.7h-1.5l-1.5-5.8h-.1l-1.6 5.8H134l-1.6-7.7h1l1.3 6.5h.1l1.6-5.9h1.3l1.6 5.9h.1l1.3-6.5z"/></g><g class="st1"><path class="st8" d="M180.1 3.3v.9h-2.2V11h-1V4.2h-2.2v-.9h5.4z"/></g><g class="st1"><path class="st8" d="M219.6 4.3h-3.7v2.5h3.2v.9h-3.2V11h-1V3.3h4.7v1z"/></g><g class="st1"><path class="st8" d="M259.8 9.1c0 .7-.2 1.2-.7 1.5-.5.3-1.1.5-1.9.5-.9 0-1.6-.2-2-.7-.5-.5-.7-1-.8-1.8h1c0 .5.2.8.5 1.1s.7.4 1.3.4c.4 0 .8-.1 1.1-.3s.4-.5.4-.9-.1-.6-.4-.9c-.3-.2-.7-.5-1.4-.7-.7-.2-1.3-.5-1.7-.8-.4-.3-.6-.8-.6-1.3 0-.6.2-1.1.7-1.5.5-.4 1-.6 1.7-.6.8 0 1.4.2 1.9.7s.7 1 .7 1.6h-1c0-.4-.2-.7-.4-1-.3-.3-.7-.4-1.2-.4-.4 0-.7.1-1 .3-.2.2-.4.5-.4.8 0 .3.1.6.4.8.3.2.7.4 1.3.6.8.3 1.4.6 1.8 1s.7 1 .7 1.6z"/></g></g><g id="Date-highlighted" transform="translate(148 55)"><g id="Rectangle_3_"><g filter="url(#filter-2)"><path id="path-1_2_" d="M4 0h52c2.2 0 4 1.8 4 4v52c0 2.2-1.8 4-4 4H4c-2.2 0-4-1.8-4-4V4c0-2.2 1.8-4 4-4z" fill-rule="evenodd" clip-rule="evenodd"/></g><path id="path-1_1_" d="M4 0h52c2.2 0 4 1.8 4 4v52c0 2.2-1.8 4-4 4H4c-2.2 0-4-1.8-4-4V4c0-2.2 1.8-4 4-4z" fill-rule="evenodd" clip-rule="evenodd" fill="#e47862"/></g><g class="st1"><path class="st2" d="M26.4 39.7V41h-8.2v-1.3c1.6-.3 2.5-.7 2.5-2.2V24h-2.8v-1.4c2.1-.4 3.7-1.5 4.6-2.7H24v17.6c-.1 1.5.8 2 2.4 2.2zM29 40.1v-4.5h1.4c.4 2.7 2 4 4.4 4 2.7 0 4.4-1.9 4.4-4.8 0-2.8-1.9-4.9-6.1-4.9-1.3 0-2.4.1-3.1.2l.7-10.1h8.1c1.1 0 1.4-.3 1.7-1.4h1.3l-.3 4h-9l-.4 5.4c.8-.1 1.7-.3 2.7-.3 4.6 0 7.8 2.4 7.8 6.6 0 4.1-3.3 7-8 7-2 .1-4.1-.4-5.6-1.2z"/></g><g class="st1"><path class="st2" d="M21.5 16.1c-1.1 0-2-.4-2.7-1.1-.7-.8-1.1-1.7-1.1-2.8 0-1.1.4-2.1 1.1-2.8.7-.8 1.6-1.1 2.7-1.1s2 .4 2.7 1.1c.7.8 1.1 1.7 1.1 2.8 0 1.1-.4 2.1-1.1 2.8-.7.7-1.6 1.1-2.7 1.1zm-1.9-1.9c.5.5 1.1.8 1.9.8s1.4-.3 1.9-.8.7-1.2.7-2-.2-1.5-.7-2-1.1-.8-1.9-.8c-.7 0-1.4.3-1.9.8s-.7 1.2-.7 2c0 .7.2 1.4.7 2zM34.4 13.6c-.2.8-.5 1.4-1.1 1.8-.6.5-1.3.7-2.1.7-1.1 0-2-.4-2.7-1.1s-1-1.7-1-2.8c0-1.2.3-2.1 1-2.8.6-.8 1.5-1.2 2.5-1.2.8 0 1.5.2 2.1.6.6.4 1 1.1 1.1 1.9H33c-.1-.4-.3-.8-.7-1-.3-.3-.7-.4-1.3-.4-.7 0-1.3.3-1.7.8-.4.5-.6 1.2-.6 2 0 .9.2 1.5.7 2.1.4.5 1 .8 1.8.8.5 0 .9-.1 1.3-.4s.6-.6.7-1h1.2zM41.6 8.3v1.1h-2.2V16h-1.2V9.4H36V8.3h5.6z"/></g></g></g></g></g></g></svg>