<?xml version="1.0" encoding="utf-8"?>
<!-- Generator: Adobe Illustrator 24.2.3, SVG Export Plug-In . SVG Version: 6.00 Build 0)  -->
<svg version="1.1" id="Layer_1" xmlns="http://www.w3.org/2000/svg" xmlns:xlink="http://www.w3.org/1999/xlink" x="0px" y="0px"
	 viewBox="0 0 282 245" style="enable-background:new 0 0 282 245;" xml:space="preserve">
<style type="text/css">
	.st0{clip-path:url(#SVGID_2_);fill:#E47862;}
	.st1{fill:none;stroke:#E47862;stroke-miterlimit:10;}
	.st2{fill:#FFFFFF;}
	.st3{font-family:'Moderat-Medium';}
	.st4{font-size:15px;}
	.st5{fill:#E47862;}
	.st6{clip-path:url(#SVGID_4_);fill:#C9C9CF;}
	.st7{fill:#726776;}
	.st8{font-size:11px;}
	.st9{clip-path:url(#SVGID_6_);fill:#C9C9CF;}
	.st10{letter-spacing:1;}
	.st11{clip-path:url(#SVGID_8_);fill:#C9C9CF;}
	.st12{clip-path:url(#SVGID_10_);fill:#C9C9CF;}
	.st13{clip-path:url(#SVGID_12_);fill:#E3F1ED;}
	.st14{clip-path:url(#SVGID_14_);fill:#E3F1ED;}
	.st15{clip-path:url(#SVGID_16_);fill:#E3F1ED;}
	.st16{clip-path:url(#SVGID_18_);fill:#E3F1ED;}
	.st17{clip-path:url(#SVGID_20_);fill:#E3F1ED;}
	.st18{clip-path:url(#SVGID_22_);fill:#E3F1ED;}
	.st19{clip-path:url(#SVGID_24_);fill:#E3F1ED;}
	.st20{clip-path:url(#SVGID_26_);fill:#E3F1ED;}
	.st21{clip-path:url(#SVGID_28_);fill:#E3F1ED;}
	.st22{clip-path:url(#SVGID_30_);fill:#E3F1ED;}
	.st23{clip-path:url(#SVGID_32_);fill:#E3F1ED;}
	.st24{clip-path:url(#SVGID_34_);fill:#E3F1ED;}
	.st25{clip-path:url(#SVGID_36_);fill:#E3F1ED;}
	.st26{clip-path:url(#SVGID_38_);fill:#E3F1ED;}
	.st27{clip-path:url(#SVGID_40_);fill:#E3F1ED;}
	.st28{clip-path:url(#SVGID_42_);fill:#E3F1ED;}
	.st29{clip-path:url(#SVGID_44_);fill:#E3F1ED;}
	.st30{clip-path:url(#SVGID_46_);fill:#C9C9CF;}
	.st31{clip-path:url(#SVGID_48_);fill:#C9C9CF;}
	.st32{clip-path:url(#SVGID_50_);fill:#C9C9CF;}
	.st33{clip-path:url(#SVGID_52_);fill:#C9C9CF;}
	.st34{clip-path:url(#SVGID_54_);fill:#C9C9CF;}
	.st35{clip-path:url(#SVGID_56_);fill:#C9C9CF;}
	.st36{clip-path:url(#SVGID_58_);fill:#C9C9CF;}
	.st37{fill:#BBBBC3;}
	.st38{font-family:'Moderat-Regular';}
	.st39{clip-path:url(#SVGID_62_);fill-rule:evenodd;clip-rule:evenodd;fill:#FFFFFF;}
	.st40{clip-path:url(#SVGID_64_);fill:#E47862;}
	.st41{font-family:'Ennore-Medium';}
	.st42{font-size:36px;}
</style>
<g>
	<defs>
		<path id="SVGID_1_" d="M197.6,198.4h77c2.2,0,4,1.8,4,4v36c0,2.2-1.8,4-4,4h-77c-2.2,0-4-1.8-4-4v-36
			C193.6,200.2,195.4,198.4,197.6,198.4z"/>
	</defs>
	<clipPath id="SVGID_2_">
		<use xlink:href="#SVGID_1_"  style="overflow:visible;"/>
	</clipPath>
	<rect x="188.6" y="193.4" class="st0" width="95" height="54"/>
</g>
<path class="st1" d="M197.6,198.4h77c2.2,0,4,1.8,4,4v36c0,2.2-1.8,4-4,4h-77c-2.2,0-4-1.8-4-4v-36
	C193.6,200.2,195.4,198.4,197.6,198.4z"/>
<text transform="matrix(1 0 0 1 219.6777 224.4492)"><tspan x="0" y="0" class="st2 st3 st4">1</tspan><tspan x="7.6" y="0" class="st2 st3 st4">9</tspan><tspan x="15.3" y="0" class="st2 st3 st4">:</tspan><tspan x="18.2" y="0" class="st2 st3 st4">3</tspan><tspan x="25.8" y="0" class="st2 st3 st4">0</tspan></text>
<path class="st1" d="M102.6,198.4h77c2.2,0,4,1.8,4,4v36c0,2.2-1.8,4-4,4h-77c-2.2,0-4-1.8-4-4v-36
	C98.6,200.2,100.4,198.4,102.6,198.4z"/>
<text transform="matrix(1 0 0 1 124.6401 224.4492)"><tspan x="0" y="0" class="st5 st3 st4">1</tspan><tspan x="7.7" y="0" class="st5 st3 st4">8</tspan><tspan x="15.3" y="0" class="st5 st3 st4">:</tspan><tspan x="18.2" y="0" class="st5 st3 st4">45</tspan></text>
<path class="st1" d="M7.6,198.4h77c2.2,0,4,1.8,4,4v36c0,2.2-1.8,4-4,4h-77c-2.2,0-4-1.8-4-4v-36C3.6,200.2,5.4,198.4,7.6,198.4z"/>
<text transform="matrix(1 0 0 1 29.0625 224.4492)"><tspan x="0" y="0" class="st5 st3 st4">1</tspan><tspan x="7.7" y="0" class="st5 st3 st4">8</tspan><tspan x="15.3" y="0" class="st5 st3 st4">:</tspan><tspan x="18.4" y="0" class="st5 st3 st4">0</tspan><tspan x="26.1" y="0" class="st5 st3 st4">0</tspan></text>
<g>
	<defs>
		<rect id="SVGID_3_" x="3.6" y="68.2" width="35" height="35"/>
	</defs>
	<clipPath id="SVGID_4_">
		<use xlink:href="#SVGID_3_"  style="overflow:visible;"/>
	</clipPath>
	<rect x="-1.4" y="63.2" class="st6" width="45" height="45"/>
</g>
<text transform="matrix(1 0 0 1 16.3417 89.4941)"><tspan x="0" y="0" class="st7 st3 st8">1</tspan><tspan x="6.5" y="0" class="st7 st3 st8">1</tspan></text>
<g>
	<defs>
		<rect id="SVGID_5_" x="43.6" y="68.2" width="35" height="35"/>
	</defs>
	<clipPath id="SVGID_6_">
		<use xlink:href="#SVGID_5_"  style="overflow:visible;"/>
	</clipPath>
	<rect x="38.6" y="63.2" class="st9" width="45" height="45"/>
</g>
<text transform="matrix(1 0 0 1 55.9825 89.4941)"><tspan x="0" y="0" class="st7 st3 st8 st10">1</tspan><tspan x="6.6" y="0" class="st7 st3 st8">2</tspan></text>
<g>
	<defs>
		<rect id="SVGID_7_" x="83.6" y="68.2" width="35" height="35"/>
	</defs>
	<clipPath id="SVGID_8_">
		<use xlink:href="#SVGID_7_"  style="overflow:visible;"/>
	</clipPath>
	<rect x="78.6" y="63.2" class="st11" width="45" height="45"/>
</g>
<text transform="matrix(1 0 0 1 95.8563 89.4941)"><tspan x="0" y="0" class="st7 st3 st8">1</tspan><tspan x="6.6" y="0" class="st7 st3 st8">3</tspan></text>
<g>
	<defs>
		<rect id="SVGID_9_" x="123.6" y="68.2" width="35" height="35"/>
	</defs>
	<clipPath id="SVGID_10_">
		<use xlink:href="#SVGID_9_"  style="overflow:visible;"/>
	</clipPath>
	<rect x="118.6" y="63.2" class="st12" width="45" height="45"/>
</g>
<text transform="matrix(1 0 0 1 135.6927 89.4941)"><tspan x="0" y="0" class="st7 st3 st8">1</tspan><tspan x="6.5" y="0" class="st7 st3 st8">4</tspan></text>
<g>
	<defs>
		<rect id="SVGID_11_" x="163.6" y="68.2" width="35" height="35"/>
	</defs>
	<clipPath id="SVGID_12_">
		<use xlink:href="#SVGID_11_"  style="overflow:visible;"/>
	</clipPath>
	<rect x="158.6" y="63.2" class="st13" width="45" height="45"/>
</g>
<text transform="matrix(1 0 0 1 175.7021 89.4941)"><tspan x="0" y="0" class="st7 st3 st8 st10">1</tspan><tspan x="6.7" y="0" class="st7 st3 st8">5</tspan></text>
<g>
	<defs>
		<rect id="SVGID_13_" x="203.6" y="68.2" width="35" height="35"/>
	</defs>
	<clipPath id="SVGID_14_">
		<use xlink:href="#SVGID_13_"  style="overflow:visible;"/>
	</clipPath>
	<rect x="198.6" y="63.2" class="st14" width="45" height="45"/>
</g>
<text transform="matrix(1 0 0 1 215.0547 89.4941)"><tspan x="0" y="0" class="st7 st3 st8 st10">1</tspan><tspan x="6.6" y="0" class="st7 st3 st8">6</tspan></text>
<g>
	<defs>
		<rect id="SVGID_15_" x="243.6" y="68.2" width="35" height="35"/>
	</defs>
	<clipPath id="SVGID_16_">
		<use xlink:href="#SVGID_15_"  style="overflow:visible;"/>
	</clipPath>
	<rect x="238.6" y="63.2" class="st15" width="45" height="45"/>
</g>
<text transform="matrix(1 0 0 1 256.1932 89.4941)"><tspan x="0" y="0" class="st7 st3 st8">1</tspan><tspan x="6.5" y="0" class="st7 st3 st8">7</tspan></text>
<g>
	<defs>
		<rect id="SVGID_17_" x="3.6" y="108.2" width="35" height="35"/>
	</defs>
	<clipPath id="SVGID_18_">
		<use xlink:href="#SVGID_17_"  style="overflow:visible;"/>
	</clipPath>
	<rect x="-1.4" y="103.2" class="st16" width="45" height="45"/>
</g>
<text transform="matrix(1 0 0 1 15.64 129.4941)"><tspan x="0" y="0" class="st7 st3 st8 st10">1</tspan><tspan x="6.7" y="0" class="st7 st3 st8">8</tspan></text>
<g>
	<defs>
		<rect id="SVGID_19_" x="43.6" y="108.2" width="35" height="35"/>
	</defs>
	<clipPath id="SVGID_20_">
		<use xlink:href="#SVGID_19_"  style="overflow:visible;"/>
	</clipPath>
	<rect x="38.6" y="103.2" class="st17" width="45" height="45"/>
</g>
<text transform="matrix(1 0 0 1 55.1514 129.4941)"><tspan x="0" y="0" class="st7 st3 st8">1</tspan><tspan x="6.6" y="0" class="st7 st3 st8">9</tspan></text>
<g>
	<defs>
		<rect id="SVGID_21_" x="83.6" y="108.2" width="35" height="35"/>
	</defs>
	<clipPath id="SVGID_22_">
		<use xlink:href="#SVGID_21_"  style="overflow:visible;"/>
	</clipPath>
	<rect x="78.6" y="103.2" class="st18" width="45" height="45"/>
</g>
<text transform="matrix(1 0 0 1 94.2416 129.4941)"><tspan x="0" y="0" class="st7 st3 st8">2</tspan><tspan x="6.5" y="0" class="st7 st3 st8">0</tspan></text>
<g>
	<defs>
		<rect id="SVGID_23_" x="123.6" y="108.2" width="35" height="35"/>
	</defs>
	<clipPath id="SVGID_24_">
		<use xlink:href="#SVGID_23_"  style="overflow:visible;"/>
	</clipPath>
	<rect x="118.6" y="103.2" class="st19" width="45" height="45"/>
</g>
<text transform="matrix(1 0 0 1 135.129 129.4941)"><tspan x="0" y="0" class="st7 st3 st8">2</tspan><tspan x="6.5" y="0" class="st7 st3 st8">1</tspan></text>
<g>
	<defs>
		<rect id="SVGID_25_" x="163.6" y="108.2" width="35" height="35"/>
	</defs>
	<clipPath id="SVGID_26_">
		<use xlink:href="#SVGID_25_"  style="overflow:visible;"/>
	</clipPath>
	<rect x="158.6" y="103.2" class="st20" width="45" height="45"/>
</g>
<text transform="matrix(1 0 0 1 175.0005 129.4941)"><tspan x="0" y="0" class="st7 st3 st8">2</tspan><tspan x="6.6" y="0" class="st7 st3 st8">2</tspan></text>
<g>
	<defs>
		<rect id="SVGID_27_" x="203.6" y="108.2" width="35" height="35"/>
	</defs>
	<clipPath id="SVGID_28_">
		<use xlink:href="#SVGID_27_"  style="overflow:visible;"/>
	</clipPath>
	<rect x="198.6" y="103.2" class="st21" width="45" height="45"/>
</g>
<text transform="matrix(1 0 0 1 214.9272 129.4941)"><tspan x="0" y="0" class="st7 st3 st8">2</tspan><tspan x="6.5" y="0" class="st7 st3 st8">3</tspan></text>
<g>
	<defs>
		<rect id="SVGID_29_" x="243.6" y="108.2" width="35" height="35"/>
	</defs>
	<clipPath id="SVGID_30_">
		<use xlink:href="#SVGID_29_"  style="overflow:visible;"/>
	</clipPath>
	<rect x="238.6" y="103.2" class="st22" width="45" height="45"/>
</g>
<text transform="matrix(1 0 0 1 254.7084 129.4941)"><tspan x="0" y="0" class="st7 st3 st8">2</tspan><tspan x="6.3" y="0" class="st7 st3 st8">4</tspan></text>
<g>
	<defs>
		<rect id="SVGID_31_" x="3.6" y="148.2" width="35" height="35"/>
	</defs>
	<clipPath id="SVGID_32_">
		<use xlink:href="#SVGID_31_"  style="overflow:visible;"/>
	</clipPath>
	<rect x="-1.4" y="143.2" class="st23" width="45" height="45"/>
</g>
<text transform="matrix(1 0 0 1 14.8101 169.4941)"><tspan x="0" y="0" class="st7 st3 st8">2</tspan><tspan x="6.5" y="0" class="st7 st3 st8">5</tspan></text>
<g>
	<defs>
		<rect id="SVGID_33_" x="43.6" y="148.2" width="35" height="35"/>
	</defs>
	<clipPath id="SVGID_34_">
		<use xlink:href="#SVGID_33_"  style="overflow:visible;"/>
	</clipPath>
	<rect x="38.6" y="143.2" class="st24" width="45" height="45"/>
</g>
<text transform="matrix(1 0 0 1 54.7084 169.4941)"><tspan x="0" y="0" class="st7 st3 st8">2</tspan><tspan x="6.4" y="0" class="st7 st3 st8">6</tspan></text>
<g>
	<defs>
		<rect id="SVGID_35_" x="83.6" y="148.2" width="35" height="35"/>
	</defs>
	<clipPath id="SVGID_36_">
		<use xlink:href="#SVGID_35_"  style="overflow:visible;"/>
	</clipPath>
	<rect x="78.6" y="143.2" class="st25" width="45" height="45"/>
</g>
<text transform="matrix(1 0 0 1 95.1118 169.4941)"><tspan x="0" y="0" class="st7 st3 st8">2</tspan><tspan x="6.4" y="0" class="st7 st3 st8">7</tspan></text>
<g>
	<defs>
		<rect id="SVGID_37_" x="123.6" y="148.2" width="35" height="35"/>
	</defs>
	<clipPath id="SVGID_38_">
		<use xlink:href="#SVGID_37_"  style="overflow:visible;"/>
	</clipPath>
	<rect x="118.6" y="143.2" class="st26" width="45" height="45"/>
</g>
<text transform="matrix(1 0 0 1 134.7743 169.4941)"><tspan x="0" y="0" class="st7 st3 st8">2</tspan><tspan x="6.5" y="0" class="st7 st3 st8">8</tspan></text>
<g>
	<defs>
		<rect id="SVGID_39_" x="163.6" y="148.2" width="35" height="35"/>
	</defs>
	<clipPath id="SVGID_40_">
		<use xlink:href="#SVGID_39_"  style="overflow:visible;"/>
	</clipPath>
	<rect x="158.6" y="143.2" class="st27" width="45" height="45"/>
</g>
<text transform="matrix(1 0 0 1 175.0192 169.4941)"><tspan x="0" y="0" class="st7 st3 st8">2</tspan><tspan x="6.6" y="0" class="st7 st3 st8">9</tspan></text>
<g>
	<defs>
		<rect id="SVGID_41_" x="203.6" y="148.2" width="35" height="35"/>
	</defs>
	<clipPath id="SVGID_42_">
		<use xlink:href="#SVGID_41_"  style="overflow:visible;"/>
	</clipPath>
	<rect x="198.6" y="143.2" class="st28" width="45" height="45"/>
</g>
<text transform="matrix(1 0 0 1 213.8599 169.4941)"><tspan x="0" y="0" class="st7 st3 st8">3</tspan><tspan x="6.6" y="0" class="st7 st3 st8">0</tspan></text>
<g>
	<defs>
		<rect id="SVGID_43_" x="243.6" y="148.2" width="35" height="35"/>
	</defs>
	<clipPath id="SVGID_44_">
		<use xlink:href="#SVGID_43_"  style="overflow:visible;"/>
	</clipPath>
	<rect x="238.6" y="143.2" class="st29" width="45" height="45"/>
</g>
<text transform="matrix(1 0 0 1 255.0651 169.4941)"><tspan x="0" y="0" class="st7 st3 st8">3</tspan><tspan x="6.4" y="0" class="st7 st3 st8">1</tspan></text>
<g>
	<defs>
		<rect id="SVGID_45_" x="3.6" y="28.2" width="35" height="35"/>
	</defs>
	<clipPath id="SVGID_46_">
		<use xlink:href="#SVGID_45_"  style="overflow:visible;"/>
	</clipPath>
	<rect x="-1.4" y="23.2" class="st30" width="45" height="45"/>
</g>
<text transform="matrix(1 0 0 1 18.5761 49.4941)" class="st7 st3 st8">4</text>
<g>
	<defs>
		<rect id="SVGID_47_" x="43.6" y="28.2" width="35" height="35"/>
	</defs>
	<clipPath id="SVGID_48_">
		<use xlink:href="#SVGID_47_"  style="overflow:visible;"/>
	</clipPath>
	<rect x="38.6" y="23.2" class="st31" width="45" height="45"/>
</g>
<text transform="matrix(1 0 0 1 58.8246 49.4941)" class="st7 st3 st8">5</text>
<g>
	<defs>
		<rect id="SVGID_49_" x="83.6" y="28.2" width="35" height="35"/>
	</defs>
	<clipPath id="SVGID_50_">
		<use xlink:href="#SVGID_49_"  style="overflow:visible;"/>
	</clipPath>
	<rect x="78.6" y="23.2" class="st32" width="45" height="45"/>
</g>
<text transform="matrix(1 0 0 1 98.5385 49.4941)" class="st7 st3 st8">6</text>
<g>
	<defs>
		<rect id="SVGID_51_" x="123.6" y="28.2" width="35" height="35"/>
	</defs>
	<clipPath id="SVGID_52_">
		<use xlink:href="#SVGID_51_"  style="overflow:visible;"/>
	</clipPath>
	<rect x="118.6" y="23.2" class="st33" width="45" height="45"/>
</g>
<text transform="matrix(1 0 0 1 138.0054 49.4941)" class="st7 st3 st8">7</text>
<g>
	<defs>
		<rect id="SVGID_53_" x="163.6" y="28.2" width="35" height="35"/>
	</defs>
	<clipPath id="SVGID_54_">
		<use xlink:href="#SVGID_53_"  style="overflow:visible;"/>
	</clipPath>
	<rect x="158.6" y="23.2" class="st34" width="45" height="45"/>
</g>
<text transform="matrix(1 0 0 1 178.7196 49.4941)" class="st7 st3 st8">8</text>
<g>
	<defs>
		<rect id="SVGID_55_" x="203.6" y="28.2" width="35" height="35"/>
	</defs>
	<clipPath id="SVGID_56_">
		<use xlink:href="#SVGID_55_"  style="overflow:visible;"/>
	</clipPath>
	<rect x="198.6" y="23.2" class="st35" width="45" height="45"/>
</g>
<text transform="matrix(1 0 0 1 218.5375 49.4941)" class="st7 st3 st8">9</text>
<g>
	<defs>
		<rect id="SVGID_57_" x="243.6" y="28.2" width="35" height="35"/>
	</defs>
	<clipPath id="SVGID_58_">
		<use xlink:href="#SVGID_57_"  style="overflow:visible;"/>
	</clipPath>
	<rect x="238.6" y="23.2" class="st36" width="45" height="45"/>
</g>
<text transform="matrix(1 0 0 1 255.0908 49.4941)"><tspan x="0" y="0" class="st7 st3 st8 st10">1</tspan><tspan x="6.7" y="0" class="st7 st3 st8">0</tspan></text>
<text transform="matrix(1 0 0 1 18.3238 12.4492)" class="st37 st38 st8">L</text>
<text transform="matrix(1 0 0 1 56.5728 12.4492)" class="st37 st38 st8">M</text>
<text transform="matrix(1 0 0 1 96.6638 12.4492)" class="st37 st38 st8">M</text>
<text transform="matrix(1 0 0 1 137.8301 12.4492)" class="st37 st38 st8">J</text>
<text transform="matrix(1 0 0 1 177.7699 12.4492)" class="st37 st38 st8">V</text>
<text transform="matrix(1 0 0 1 217.8286 12.4492)" class="st37 st38 st8">S</text>
<text transform="matrix(1 0 0 1 257.16 12.4492)" class="st37 st38 st8">D</text>
<g>
	<defs>
		<rect id="SVGID_59_" x="151.6" y="58.4" width="60" height="60"/>
	</defs>
	<clipPath id="SVGID_60_">
		<use xlink:href="#SVGID_59_"  style="overflow:visible;"/>
	</clipPath>
	<g style="clip-path:url(#SVGID_60_);">
		
			<image style="overflow:visible;" width="60" height="60" xlink:href="D3364CA4CD2919E.png"  transform="matrix(1 0 0 1 151.6186 58.4492)">
		</image>
	</g>
</g>
<g>
	<defs>
		<rect id="SVGID_61_" x="151.6" y="58.4" width="60" height="60"/>
	</defs>
	<clipPath id="SVGID_62_">
		<use xlink:href="#SVGID_61_"  style="overflow:visible;"/>
	</clipPath>
	<path class="st39" d="M35.6,56.4h52c2.2,0,4,1.8,4,4v52c0,2.2-1.8,4-4,4h-52c-2.2,0-4-1.8-4-4v-52C31.6,58.2,33.4,56.4,35.6,56.4z"
		/>
</g>
<g>
	<defs>
		<path id="SVGID_63_" d="M155.6,56.4h52c2.2,0,4,1.8,4,4v52c0,2.2-1.8,4-4,4h-52c-2.2,0-4-1.8-4-4v-52
			C151.6,58.2,153.4,56.4,155.6,56.4z"/>
	</defs>
	<clipPath id="SVGID_64_">
		<use xlink:href="#SVGID_63_"  style="overflow:visible;"/>
	</clipPath>
	<rect x="146.6" y="51.4" class="st40" width="70" height="70"/>
</g>
<text transform="matrix(1 0 0 1 167.9136 104.4492)" class="st2 st41 st42">15</text>
<text transform="matrix(1 0 0 1 168.4805 74.4492)"><tspan x="0" y="0" class="st2 st3 st8">O</tspan><tspan x="8.4" y="0" class="st2 st3 st8">C</tspan><tspan x="15.5" y="0" class="st2 st3 st8">T</tspan></text>
</svg>
