<?xml version="1.0" encoding="utf-8"?>
<!-- Generator: Adobe Illustrator 22.1.0, SVG Export Plug-In . SVG Version: 6.00 Build 0)  -->
<svg version="1.1" id="Layer_1" xmlns="http://www.w3.org/2000/svg" xmlns:xlink="http://www.w3.org/1999/xlink" x="0px" y="0px"
	 width="49px" height="47px" viewBox="0 0 49 47" style="enable-background:new 0 0 49 47;" xml:space="preserve">
<style type="text/css">
	.st0{fill:#BBBBC3;}
</style>
<path class="st0" d="M12.4,28.1l3.4,4.8l32-15.1L12.4,28.1z"/>
<path d="M48.5,17.6c0-0.1-0.1-0.2-0.1-0.3c-0.1-0.1-0.1-0.1-0.2-0.2c-0.1-0.1-0.2-0.1-0.3-0.1c0,0-0.1,0-0.2,0l-0.4,0l-31.3-4.6
	c-0.2,0-0.5,0-0.7,0.2l-4.4,4.7c-0.2,0.2-0.2,0.4-0.2,0.7l0.4,1.7l-2,0.1c-0.2,0-0.4,0.1-0.5,0.3L0.2,30.4C0,30.7,0,31,0.2,31.3
	c0.2,0.3,0.5,0.4,0.8,0.3l10.8-3l3.4,4.7c0.1,0.2,0.4,0.3,0.6,0.3c0.1,0,0.2,0,0.3-0.1l31.6-14.9c0.4,0,0.7-0.3,0.8-0.6
	c0-0.1,0-0.1,0-0.2C48.6,17.8,48.5,17.7,48.5,17.6z M16,32l-2.7-3.8l26.1-7.3L16,32z M2.9,29.5l6.8-8.1l30.5-2.3L2.9,29.5z
	 M12.8,19.7l-0.4-1.6l3.9-4.1l24.3,3.6L12.8,19.7z"/>
</svg>
