<svg baseProfile="tiny" xmlns="http://www.w3.org/2000/svg" width="36" height="47"><path fill="#F4DF89" d="M22.4 19.3H4.9v14c0 7.1 5.9 12.9 13.1 12.9 7.2 0 13.1-5.8 13.1-12.9v-14h-8.7z"/><path fill="#FFF" d="M26.1 39.4c-.1 0-.3 0-.4-.1-.3-.2-.4-.7-.2-1 1-1.5 1.5-3.2 1.5-4.9 0-.4.3-.7.7-.7.4 0 .7.3.7.7 0 2.1-.6 4-1.8 5.7-.1.2-.3.3-.5.3z"/><path fill="#A98E7C" d="M31.1 14.8h-.2c0-.2-.1-.5-.1-.7-1-4.8-4.7-8.6-9.4-9.8-.5-.1-.9-.2-1.4-.3-.4-.1-.8-.1-1.2-.1h-1.4c-.4 0-.8.1-1.2.1-.5.1-1 .2-1.4.3-4.8 1.2-8.4 4.9-9.5 9.5-.1.2-.1.5-.1.7H5c-1.6 0-2.9 1.3-2.9 2.9s1.3 2.9 2.9 2.9c.2 0 .3 0 .5-.1.1.3.1.5.2.8 1.8 5.1 6.6 8.7 12.4 8.7 2.2 0 4.2-.5 6-1.4 1.9-1 3.6-2.4 4.8-4.2.6-.9 1.1-1.9 1.5-2.9.1-.2.1-.5.2-.7.2 0 .4.1.6.1 1.6 0 2.9-1.3 2.9-2.9-.1-1.6-1.4-2.9-3-2.9z"/><path d="M18 24.4c-1.1 0-2.1-.4-2.9-1-.3-.2-.4-.7-.1-1 .2-.3.7-.4 1-.1 1.2.9 2.9.9 4 0 .3-.2.8-.2 1 .1.2.3.2.8-.1 1-.8.6-1.8 1-2.9 1zM14.9 15.8c-.2 0-.3-.1-.4-.2-1.2-.9-2.9-.9-4 0-.3.2-.8.2-1-.1-.2-.3-.2-.8.1-1 1.6-1.3 4.2-1.3 5.8 0 .3.2.4.7.1 1-.1.2-.4.3-.6.3zM26 15.8c-.2 0-.3-.1-.4-.2-1.1-.9-2.9-.9-4 0-.3.2-.8.2-1-.1-.2-.3-.2-.8.1-1 1.6-1.3 4.2-1.3 5.8 0 .3.2.4.7.1 1-.2.2-.4.3-.6.3z"/><path d="M31.5 14.1c-1-5.2-5-9.3-10.2-10.5V2c0-.4-.3-.7-.7-.7s-.7.3-.7.7v1.3c-.4-.1-.8-.1-1.2-.1V.7c0-.4-.3-.7-.7-.7s-.7.3-.7.7v2.5c-.4 0-.8.1-1.2.1V2c0-.4-.3-.7-.7-.7s-.8.3-.8.7v1.6c-5 1.3-9 5.2-10.1 10.2-1.8.2-3.3 1.7-3.3 3.5 0 1.7 1.3 3.2 2.9 3.5v12.5C4.2 40.9 10.4 47 18 47s13.8-6.1 13.8-13.6V21.2c1.7-.3 2.9-1.8 2.9-3.5 0-1.9-1.4-3.4-3.2-3.6zM18 4.6c6.8 0 12.4 5.5 12.4 12.2S24.8 28.9 18 28.9 5.6 23.5 5.6 16.8 11.2 4.6 18 4.6zM4.2 19.4c-.9-.3-1.5-1.1-1.5-2 0-1 .7-1.8 1.6-2.1-.1.5-.1 1-.1 1.5v2.6zm1.4 14V22.8c2.3 4.5 7 7.6 12.4 7.6 1.5 0 3-.2 4.3-.7L8.8 41.5c-2-2.2-3.2-5-3.2-8.1zm24.8 0c0 6.7-5.6 12.2-12.4 12.2-3.1 0-6-1.2-8.2-3.1l20.6-17.9v8.8zm1.4-13.7v-2.9c0-.4 0-.8-.1-1.2.9.3 1.6 1.1 1.6 2 0 1-.6 1.8-1.5 2.1z"/></svg>