<?xml version="1.0" encoding="utf-8"?>
<!-- Generator: Adobe Illustrator 22.1.0, SVG Export Plug-In . SVG Version: 6.00 Build 0)  -->
<svg version="1.1" baseProfile="tiny" id="Layer_1" xmlns="http://www.w3.org/2000/svg" xmlns:xlink="http://www.w3.org/1999/xlink"
	 x="0px" y="0px" width="25px" height="25px" viewBox="0 0 25 25" xml:space="preserve">
<title>ic_cannot</title>
<desc>Created with Sketch.</desc>
<g>
	<path fill="#E47862" d="M13.5,12.3l3.7-3.7c0.3-0.3,0.3-0.8,0-1.1s-0.8-0.3-1.1,0l-3.7,3.7L8.8,7.6c-0.3-0.3-0.8-0.3-1.1,0
		s-0.3,0.8,0,1.1l3.6,3.6l-3.9,3.9c-0.3,0.3-0.3,0.8,0,1.1c0.1,0.1,0.3,0.2,0.5,0.2s0.4-0.1,0.5-0.2l3.9-3.9l4,4
		c0.1,0.1,0.3,0.2,0.5,0.2c0.2,0,0.4-0.1,0.5-0.2c0.3-0.3,0.3-0.8,0-1.1L13.5,12.3z"/>
	<path fill="#E47862" d="M12.5,0.2C5.7,0.2,0.2,5.7,0.2,12.5s5.5,12.2,12.2,12.2s12.2-5.5,12.2-12.2S19.3,0.2,12.5,0.2z M12.5,23.2
		c-5.9,0-10.8-4.8-10.8-10.8S6.6,1.8,12.5,1.8s10.8,4.8,10.8,10.8S18.4,23.2,12.5,23.2z"/>
</g>
</svg>
