<?xml version="1.0" encoding="utf-8"?>
<!-- Generator: Adobe Illustrator 22.1.0, SVG Export Plug-In . SVG Version: 6.00 Build 0)  -->
<svg version="1.1" id="Layer_1" xmlns="http://www.w3.org/2000/svg" xmlns:xlink="http://www.w3.org/1999/xlink" x="0px" y="0px"
	 width="45px" height="47px" viewBox="0 0 45 47" style="enable-background:new 0 0 45 47;" xml:space="preserve">
<style type="text/css">
	.st0{fill:#D1EEE9;}
	.st1{fill:#B8ABBB;}
	.st2{fill:none;stroke:#000000;stroke-width:1.5;stroke-linecap:round;stroke-linejoin:round;}
</style>
<g>
	<path class="st0" d="M17.8,15.1l9.2,0.7l2.7,4.5l0.5,7l-3.7,4.3l1.6-1.5L14.3,16.9l0.2,0.5L17.8,15.1z"/>
	<path class="st1" d="M16.8,41.8L4.4,29l2-1.3l8.7,2l2.6,6.1L16.8,41.8z"/>
	<g>
		<path class="st2" d="M29.3,2.8c0,0-4.2,3.3-3,7.9c1.2,4.6,5.7,12.6,3.9,17.1c-1.8,4.5-6.2,6.8-16.1,2.1
			c-9.8-4.8-13.4,1.5-13.4,1.5"/>
		<path class="st2" d="M14.6,44.2c0,0,4.2-4.4,3-8.7s-5.7-11.8-3.9-16S20,13.2,30,17.6c10,4.4,13.6-1.4,13.6-1.4 M26.9,5.4
			l13.2,13.2 M14.8,17.8l13,12.9 M4.4,29l11.4,12.7"/>
	</g>
</g>
</svg>
