<svg xmlns="http://www.w3.org/2000/svg" width="47" height="47"><path d="M28.9 44.1C34.5 44.1 39 39.6 39 34s-4.5-10.2-10.2-10.1c-5.6 0-10.1 4.5-10.1 10.2s4.6 10 10.2 10z" fill="#bde0d9"/><path d="M10.9 23.1c5.6 0 10.1-4.6 10.1-10.2S16.4 2.8 10.8 2.8C5.3 2.8.7 7.3.7 12.9c.1 5.6 4.6 10.2 10.2 10.2z" fill="#e3cde8"/><path d="M14.5 29.3h-2.8v-5.6c2.6-.2 5.1-1.3 7-3.2 2.1-2.1 3.2-4.8 3.2-7.7s-1.1-5.6-3.2-7.7c-2.2-2-4.9-3.1-7.8-3.1C4.9 2 0 6.9 0 12.9c0 5.8 4.5 10.5 10.2 10.9v5.6H7.4c-.4 0-.8.3-.8.8s.3.8.8.8h2.8v2.4c0 .4.3.8.8.8s.8-.3.8-.8V31h2.8c.4 0 .8-.3.8-.8s-.5-.9-.9-.9zm-13-16.4c0-5.2 4.2-9.4 9.4-9.4 2.5 0 4.9 1 6.6 2.7 1.8 1.8 2.8 4.1 2.8 6.6s-1 4.9-2.7 6.7c-1.8 1.8-4.1 2.8-6.6 2.8-5.3 0-9.5-4.2-9.5-9.4zm44 4.4h-7.8c-.4 0-.8.3-.8.8s.3.8.8.8h6L36.6 26l-.1.1c-2-1.9-4.6-3.1-7.6-3.1-6 .1-10.9 5-10.9 11s4.9 10.9 10.9 10.9c2.9 0 5.6-1.1 7.7-3.2 2.1-2.1 3.2-4.8 3.2-7.7 0-2.5-.9-4.9-2.4-6.7.1 0 .1-.1.2-.1l7.2-7.2v6c0 .4.3.8.8.8s.8-.3.8-.8v-7.8c-.1-.5-.4-.9-.9-.9zM38.3 34c0 2.5-1 4.9-2.8 6.6-1.8 1.8-4.1 2.8-6.6 2.8-5.2 0-9.4-4.2-9.4-9.4s4.2-9.4 9.4-9.4c5.1 0 9.4 4.2 9.4 9.4z"/></svg>