<svg id="Layer_1" xmlns="http://www.w3.org/2000/svg" width="33" height="47"><style>.st1{fill:#fff}</style><path d="M1.7 5.2V40l2.1 2.2L6 40l2.1 2.2 2.1-2.2 2.1 2.2 2.1-2.2 2.1 2.2 2.1-2.2 2.1 2.2 2.1-2.2 2.1 2.2L27 40l2.1 2.2 2.1-2.2V15.7L21.3 5.2H1.7z" fill="#e7dfdd"/><path class="st1" d="M31.7 15.7H21.3V5.2l10.4 10.5z"/><path d="M32.4 15.7v-.2-.1c0-.1-.1-.1-.1-.2L21.8 4.7c-.1-.1-.1-.1-.2-.1H21.3 1.7c-.4-.1-.7.2-.7.6V40c0 .2.1.4.2.5l2.1 2.2c.3.3.8.3 1.1 0L6 41l1.6 1.6c.3.3.8.3 1.1 0l1.6-1.6 1.6 1.6c.1.1.3.2.5.2s.4-.1.5-.2l1.6-1.6 1.6 1.6c.3.3.8.3 1.1 0l1.6-1.6 1.6 1.6c.1.1.3.2.5.2s.4-.1.5-.2L23 41l1.6 1.6c.3.3.8.3 1.1 0l1.6-1.6 1.6 1.6c.1.1.3.2.5.2s.4-.1.5-.2l2.1-2.2c.1-.1.2-.3.2-.5l.2-24.2zm-2.5-.7H22V7l7.9 8zm-.4 26l-1.6-1.6c-.3-.3-.8-.3-1.1 0L25.2 41l-1.6-1.6c-.1-.1-.3-.2-.5-.2s-.4.1-.5.2L21 41l-1.6-1.6c-.1-.1-.3-.2-.5-.2s-.4.1-.5.2L16.7 41l-1.6-1.6c-.3-.3-.8-.3-1.1 0L12.4 41l-1.6-1.6c-.1-.1-.3-.2-.5-.2s-.4.1-.5.2L8.1 41l-1.6-1.6c-.3-.3-.8-.3-1.1 0L3.8 41l-1.4-1.4V6h18.1v9.7c0 .4.3.8.8.8h9.6v23.2L29.5 41z"/><path d="M5.5 15.7h3v3H12v-3h3v-3.6h-3v-3H8.4v3h-3v3.6z" fill="#eb916e"/><path d="M12 19.4H8.5c-.4 0-.8-.3-.8-.8v-2.2H5.5c-.4 0-.8-.3-.8-.8V12c0-.4.3-.8.8-.8h2.2V9.1c0-.4.3-.8.8-.8H12c.4 0 .8.3.8.8v2.2H15c.4 0 .8.3.8.8v3.6c0 .4-.3.8-.8.8h-2.2v2.2c0 .4-.4.7-.8.7zm-2.8-1.5h2.1v-2.2c0-.4.3-.8.8-.8h2.2v-2.1H12c-.4 0-.8-.3-.8-.8V9.8h-2V12c0 .4-.3.8-.8.8H6.2V15h2.2c.4 0 .8.3.8.8v2.1z"/><path class="st1" d="M27.5 33.5h-22c-.4 0-.8-.3-.8-.8s.4-.7.8-.7h22c.4 0 .8.3.8.8s-.4.7-.8.7zm0-5.2h-22c-.4 0-.8-.3-.8-.8s.3-.8.8-.8h22c.4 0 .8.3.8.8s-.4.8-.8.8z"/></svg>