<svg baseProfile="tiny" xmlns="http://www.w3.org/2000/svg" width="45" height="47"><path fill="#F4AE92" d="M27.6 12h-14c-4.7 0-8.5 3.8-8.5 8.5v16.1c0 4.6-4.4 6.5-4.3 6.5 3.2 0 6-.6 7.7-2 1.4 1.1 3.2 2 5.2 2h14c4.7 0 8.5-3.8 8.5-8.5v-14c0-4.8-3.9-8.6-8.6-8.6z"/><path fill="#FFF" d="M23.8 24.9v-5.2h-5.5v5.2h-5.2v5.5h5.2v5.1h5.5v-5.1h5.1v-5.5z"/><path d="M29 24h-4.4v-4.4c0-.5-.4-.8-.8-.8h-5.5c-.5 0-.8.4-.8.8V24h-4.4c-.5 0-.8.4-.8.8v5.5c0 .5.4.8.8.8h4.4v4.4c0 .5.4.8.8.8h5.5c.4 0 .7-.3.8-.8v-4.4H29c.5 0 .8-.4.8-.8v-5.5c0-.5-.4-.8-.8-.8zm-.8 5.6h-4.4c-.5 0-.8.4-.8.8v4.4h-4v-4.4c0-.5-.4-.8-.8-.8h-4.4v-4h4.4c.5 0 .8-.4.8-.8v-4.4h4v4.4c0 .5.4.8.8.8h4.4v4z"/><path fill="#FFF" d="M35.4 3.7c-4.4 0-8 3.3-8.7 7.5-.1.4-.1.8-.1 1.3v.2c.1 4.7 4 8.5 8.7 8.5h.1c.5 0 1 0 1.4-.1 4.3-.6 7.4-4.2 7.4-8.6 0-4.8-3.9-8.8-8.8-8.8z"/><path d="M45 12.5C45 7.3 40.7 3 35.5 3c-4.8 0-8.8 3.6-9.4 8.3H13.6c-5.1 0-9.3 4.2-9.3 9.3v16c0 3.4-2.7 5.2-3.8 5.8-.3.2-.5.5-.5.9.1.3.4.6.7.6 3.2 0 5.9-.6 7.7-1.8 1.7 1.2 3.5 1.8 5.2 1.8h14c5.1 0 9.3-4.2 9.3-9.3V21.9c4.6-.7 8.1-4.6 8.1-9.4zM27.6 42.3h-14c-1.5 0-3.1-.6-4.7-1.9-.1-.1-.3-.2-.5-.2s-.3.1-.5.2c-1 .8-2.6 1.4-4.6 1.7 1.3-1.2 2.4-3 2.4-5.5V20.5c0-4.3 3.5-7.8 7.8-7.8H26c.1 5.1 4.3 9.2 9.4 9.3v12.5c0 4.3-3.5 7.8-7.8 7.8zm7.9-21.8c-4.4 0-8-3.6-8-8s3.6-8 8-8 8 3.6 8 8-3.6 8-8 8z"/><path fill="#231F20" d="M38.9 9.7c-.9 0-1.9.4-2.9 1.2-.3.2-.3.6-.2.9-.6-.6-2.1-2.1-3.8-2.1-1.6 0-2.8 1.3-2.8 2.8 0 1.6 1.3 2.8 2.8 2.8.9 0 1.9-.4 2.9-1.2.3-.2.3-.6.2-.9.6.6 2.1 2.1 3.8 2.1 1.6 0 2.8-1.3 2.8-2.8.1-1.6-1.2-2.8-2.8-2.8zM34 12.9c-.5.4-1.2.9-2 .9-.7 0-1.3-.6-1.3-1.3s.6-1.3 1.3-1.3c1.1 0 2.3 1.1 2.8 1.7-.3-.2-.6-.1-.8 0zm4.9.9c-1.1 0-2.3-1.1-2.8-1.7.3.1.6.1.8-.1.5-.4 1.2-.9 2-.9.7 0 1.3.6 1.3 1.3.1.8-.5 1.4-1.3 1.4z"/></svg>