<svg id="Layer_1" xmlns="http://www.w3.org/2000/svg" width="48" height="47"><style>.st1{fill:#fff}</style><path d="M4.7 13.5v21.8c0 2.4 1.9 4.4 4.4 4.4 2.4 0 4.4-2 4.4-4.4V13.5H4.7z" fill="#9edbd1"/><path class="st1" d="M19.8 13.5v21.8c0 2.4 1.9 4.4 4.4 4.4s4.4-2 4.4-4.4V13.5h-8.8z"/><path d="M19.8 13.5v21.8c0 2.4 1.9 4.4 4.4 4.4s4.4-2 4.4-4.4V13.5h-8.8z" fill="#edc298"/><path class="st1" d="M34 13.5v21.8c0 2.4 1.9 4.4 4.4 4.4s4.4-2 4.4-4.4V13.5H34z"/><path d="M34.8 13.5v21.8c0 2.4 1.9 4.4 4.4 4.4s4.4-2 4.4-4.4V13.5h-8.8z" fill="#d6b8dd"/><path d="M47.5 19.9h-3.2V8.7h1.6V7.3H32.6v1.5h1.6v11.1h-4.8V8.7H31V7.3H17.7v1.5H19v11.1h-4.8V8.7h1.6V7.3H2.4v1.5H4v11.1H0v1.5h4v13.9c0 2.8 2.3 5.1 5.1 5.1s5.1-2.3 5.1-5.1V21.4H19v13.9c0 2.8 2.3 5.1 5.1 5.1s5.1-2.3 5.1-5.1V21.4H34v13.9c0 2.8 2.3 5.1 5.1 5.1s5.1-2.3 5.1-5.1V21.4h3.2v-1.5h.1zM12.7 8.7v4H5.5v-4h7.2zM9.1 38.9c-2 0-3.6-1.6-3.6-3.6v-21h7.2v21c0 2-1.6 3.6-3.6 3.6zM27.8 8.7v4h-7.2v-4h7.2zm0 26.6c0 2-1.6 3.6-3.6 3.6s-3.6-1.6-3.6-3.6v-21h7.2v21zm15-26.6v4h-7.2v-4h7.2zm0 26.6c0 2-1.6 3.6-3.6 3.6s-3.6-1.6-3.6-3.6v-21h7.2v21z"/></svg>