<svg baseProfile="tiny" xmlns="http://www.w3.org/2000/svg" width="47" height="47"><path fill="#FFF" d="M42 34.7c0 .9-.7 1.7-1.7 1.7H6.5c-.9 0-1.7-.8-1.7-1.7V10.4c0-.9.7-1.7 1.7-1.7h33.9c.9 0 1.7.8 1.7 1.7v24.3z"/><path fill="#EFEFED" d="M42.8 33.1h-13v2H17.1v-2H.7v2.7c0 1.1.9 2 2 2h41.4c1.1 0 2-.9 2-2v-2.7h-3.3z"/><path d="M46.1 32.4h-3.3v-22c0-1.3-1.1-2.4-2.4-2.4H6.5c-1.3 0-2.4 1.1-2.4 2.4v21.9H.8c-.4 0-.8.3-.8.8v2.7c0 1.5 1.2 2.8 2.8 2.8h41.4c1.5 0 2.8-1.2 2.8-2.8v-2.7c-.1-.4-.5-.7-.9-.7zm-40.5-22c0-.5.4-.9.9-.9h33.9c.5 0 .9.4.9.9v21.9H29.8c-.4 0-.8.3-.8.8v1.3H17.8v-1.3c0-.4-.3-.8-.8-.8H5.6V10.4zm39.8 25.4c0 .7-.6 1.3-1.3 1.3H2.8c-.7 0-1.3-.6-1.3-1.3v-1.9h14.8v1.3c0 .4.3.8.8.8h12.7c.4 0 .8-.3.8-.8v-1.3h14.8v1.9z"/><path fill="#86D2C5" d="M14.6 19.3c-.2 0-.4-.1-.5-.2-.3-.3-.3-.8 0-1.1 2.5-2.5 5.8-3.9 9.4-3.9 3.6 0 6.9 1.4 9.4 3.9.3.3.3.8 0 1.1-.3.3-.8.3-1.1 0-2.2-2.2-5.2-3.5-8.3-3.5s-6.1 1.2-8.3 3.5c-.2.1-.4.2-.6.2z"/><path fill="#86D2C5" d="M17 21.7c-.2 0-.4-.1-.5-.2-.3-.3-.3-.8 0-1.1 1.9-1.9 4.3-2.9 7-2.9s5.1 1 7 2.9c.3.3.3.8 0 1.1-.3.3-.8.3-1.1 0-1.6-1.6-3.7-2.5-5.9-2.5s-4.3.9-5.9 2.5c-.2.1-.4.2-.6.2z"/><path fill="#86D2C5" d="M27.5 24.1c-.2 0-.4-.1-.5-.2-.9-.9-2.2-1.5-3.5-1.5s-2.6.5-3.5 1.5c-.3.3-.8.3-1.1 0s-.3-.8 0-1.1c1.2-1.2 2.8-1.9 4.6-1.9s3.3.7 4.6 1.9c.3.3.3.8 0 1.1-.3.2-.5.2-.6.2zM23.4 30.5c-.8 0-1.6-.3-2.1-.9-1.2-1.2-1.2-3.1 0-4.3.6-.6 1.3-.9 2.1-.9s1.6.3 2.1.9c1.2 1.2 1.2 3.1 0 4.3-.5.6-1.3.9-2.1.9zm0-4.6c-.4 0-.8.2-1.1.5-.6.6-.6 1.6 0 2.2.3.3.7.5 1.1.5.4 0 .8-.2 1.1-.5.6-.6.6-1.6 0-2.2-.3-.3-.7-.5-1.1-.5z"/></svg>