<svg baseProfile="tiny" xmlns="http://www.w3.org/2000/svg" width="35" height="47"><path fill="#B8DDD3" d="M6.8 18.9c1.3-.4 2.6-.4 3.8-.2 1.3-2.2 3.3-3.9 5.9-4.6 2.6-.8 5.2-.4 7.5.7.9-.8 2.1-1.5 3.3-1.9 2.3-.7 4.6-.3 6.6.7-.1-.3-.1-.5-.2-.8-2.6-8.9-11.9-14-20.9-11.4-8.9 2.6-14 12-11.4 20.9.1.3.2.5.3.8 1-2 2.8-3.5 5.1-4.2"/><path d="M1.7 23.8s-.1 0 0 0c-.4 0-.6-.2-.7-.5-.1-.3-.2-.5-.3-.8C-2 13.2 3.4 3.4 12.7.7 17.2-.6 22-.1 26.1 2.2s7.1 6 8.4 10.5c.1.3.2.6.2.8.1.3 0 .6-.3.8-.2.2-.6.2-.8.1-1.8-1-4-1.3-6-.7-1.1.3-2.2.9-3 1.7-.2.2-.6.3-.8.1-2.2-1.1-4.6-1.3-6.9-.7-2.3.7-4.3 2.2-5.5 4.3-.2.3-.5.4-.8.4-1.2-.2-2.4-.1-3.5.2-2 .6-3.7 1.9-4.7 3.8-.2.2-.4.3-.7.3zM17.6 1.5c-1.5 0-3 .2-4.5.6C4.8 4.6 0 13 1.9 21.3c1.2-1.5 2.8-2.6 4.7-3.1 1.2-.3 2.4-.4 3.7-.3 1.4-2.2 3.6-3.8 6.1-4.5 2.5-.7 5.2-.5 7.6.5 1-.8 2.1-1.4 3.2-1.7 1.9-.5 3.8-.5 5.6.1-1.3-3.8-3.9-6.9-7.5-8.8-2.4-1.3-5-2-7.7-2zM6.8 18.9z"/><path fill="#E7DFDD" d="M30.8 42.5l-11 3.2L14.7 28l10.9-3.1z"/><path fill="#F2B7A0" d="M27.7 28.1l-13 3.8-1-3.6 13-3.7z"/><path d="M11.8 28c-.2-.1-.4-.4-.3-.7.1-.2.4-.4.7-.2.3.1.4.4.3.7-.1.2-.3.3-.5.3-.1 0-.2 0-.2-.1zm-1.8-.7c-.2-.1-.4-.4-.3-.7.1-.3.4-.4.7-.3.2.1.4.4.3.7-.1.2-.3.3-.5.3H10zm-1.7-.8c-.3-.1-.4-.4-.3-.7.1-.2.4-.4.7-.2.3.1.4.4.3.7-.1.2-.3.3-.5.3 0 0-.1 0-.2-.1zm-1.7-.7c-.3-.1-.4-.4-.3-.7.1-.2.4-.4.7-.3.2.1.4.4.2.7-.1.2-.3.3-.5.3h-.1zM4.9 25c-.2-.1-.4-.4-.2-.7.1-.2.3-.3.6-.2.2.1.4.4.2.7-.1.2-.3.3-.5.3l-.1-.1zm-1.7-.7c-.2-.1-.4-.4-.3-.7.1-.2.4-.4.7-.2.2.1.4.4.2.6-.1.2-.3.3-.5.3h-.1zm24.2-.9c-.2-.1-.3-.5-.1-.7.1-.2.5-.3.7-.1.2.1.3.5.1.7-.1.1-.2.2-.4.2-.1 0-.2 0-.3-.1zm1.1-1.5c-.2-.2-.3-.5-.1-.7.2-.2.5-.3.7-.1.2.2.3.5.1.7-.1.1-.3.2-.4.2-.2-.1-.3-.1-.3-.1zm1-1.6c-.2-.2-.3-.5-.1-.7.2-.2.5-.3.7-.1.2.1.3.5.1.7-.1.1-.3.2-.4.2-.1 0-.2 0-.3-.1zm1-1.5c-.2-.2-.3-.5-.1-.7.2-.2.5-.3.7-.1.2.2.3.5.1.7-.1.1-.3.2-.4.2-.1-.1-.2-.1-.3-.1zm1.1-1.6c-.2-.2-.3-.5-.1-.7.2-.2.5-.3.7-.1.2.2.3.5.1.7-.1.1-.3.2-.4.2-.1 0-.2 0-.3-.1zm1-1.6c-.2-.1-.3-.5-.1-.7.2-.2.5-.3.7-.1.2.1.3.5.1.7-.1.1-.2.2-.4.2-.1 0-.2 0-.3-.1zm-7.8 7.3c0-.3.1-.5.4-.6.3 0 .5.2.6.4 0 .3-.1.5-.4.6h-.1c-.2 0-.5-.1-.5-.4zm-.3-2c0-.3.1-.5.4-.6.3 0 .5.1.6.4 0 .3-.1.5-.4.6H25c-.3 0-.5-.1-.5-.4zm-.3-2c0-.3.1-.5.4-.6.3 0 .5.1.6.4 0 .3-.1.5-.4.6h-.1c-.3 0-.5-.2-.5-.4zm-.3-2c0-.3.1-.5.4-.6.3 0 .5.1.6.4 0 .3-.1.5-.4.6h-.1c-.3 0-.5-.2-.5-.4zm-10.5 9.5c-.1-.3 0-.5.3-.7.3-.1.6 0 .7.3.1.2 0 .5-.3.7h-.2c-.2 0-.4-.1-.5-.3zm-.8-1.9c-.1-.3 0-.5.3-.7.2-.1.6 0 .7.3.1.2 0 .5-.3.7h-.2c-.2 0-.4-.1-.5-.3zm-.8-1.9c-.1-.2 0-.5.3-.7.2-.1.5 0 .7.3.1.2 0 .6-.3.7h-.2c-.2 0-.4-.1-.5-.3zm-.8-1.8c-.1-.2 0-.6.3-.7.3-.1.6 0 .7.3.1.2 0 .6-.3.7h-.2c-.3 0-.4-.1-.5-.3z"/><path fill="#FFF" d="M29.9 39.5l-7.5 2.2-2.5-8.5 7.5-2.1z"/><path d="M31.5 42.3l-.9-3-.5-1.8-2.5-8.5.3-.1c.4-.1.6-.5.5-.9l-1-3.5c-.1-.2-.2-.4-.4-.4-.2-.1-.4-.1-.6-.1l-13 3.8c-.2.1-.4.2-.4.4-.1.2-.1.4-.1.6l1 3.5c.1.3.4.5.7.5h.2l.3-.1L19 46.1c.1.2.2.4.4.4.1.1.2.1.4.1h.2l11-3.4c.4-.1.6-.5.5-.9zm-2.9-4.6L29 39l-6.1 1.8-2-7L27 32l1.6 5.7zm-14-8.8l11.6-3.4.6 2.1L15.2 31l-.6-2.1zm5.7 15.9l-3.7-12.7 9.5-2.8.4 1.2-6.8 2c-.4.1-.6.5-.5.9l2.5 8.4c.1.2.2.4.4.4.1.1.2.1.4.1h.2l6.8-2 .5 1.6-9.7 2.9z"/></svg>