<svg baseProfile="tiny" xmlns="http://www.w3.org/2000/svg" width="46" height="47"><path fill="#B0E2D8" d="M22.7 33.2H35c5.4 0 9.8-4.4 9.8-9.8s-4.4-9.8-9.8-9.8H22.7v19.6z"/><path fill="#FFF" d="M22.9 13.6H10.7C5.3 13.6.9 18 .9 23.4s4.4 9.8 9.8 9.8h12.2V13.6zM41.1 22.3c-.4 0-.8-.3-.8-.8 0-.6-1.4-4-4.9-4.2-.4 0-.7-.4-.7-.8s.4-.7.8-.7c4.3.2 6.3 4.4 6.3 5.7 0 .5-.3.8-.7.8zM33.5 17.2h-.1c-.5-.1-1.5-.1-1.9 0-.4.1-.8-.2-.9-.6-.1-.4.2-.8.6-.9.9-.2 2.3 0 2.5 0 .4.1.7.4.6.8-.1.4-.5.7-.8.7z"/><path d="M45.5 23.4c0-5.8-4.7-10.6-10.6-10.6H11.1C5.2 12.8.4 17.6.4 23.5c0 .4.1 10.7 10.7 10.7h23.6c2.3 0 4.4-.7 6.1-1.9 2.8-2 4.7-5.2 4.7-8.9zM35 32.5H23.7V14.3h11c5 0 9.2 4.1 9.2 9.2 0 3.1-1.6 5.8-3.9 7.5-1.5.9-3.2 1.5-5 1.5zm-33-9c0-5 4.1-9.2 9.2-9.2H22v18.3H11.1c-9 .1-9.1-8.7-9.1-9.1z"/></svg>