<svg baseProfile="tiny" xmlns="http://www.w3.org/2000/svg" width="43" height="47"><path fill="#FFF" d="M32.1 5.5H15.9C10.5 5.5 6 10 6 15.4V34c0 5.4-5.1 7.5-5 7.5 3.7 0 7-.8 8.9-2.3 1.7 1.3 3.7 2.3 6 2.3h16.2c5.4 0 9.9-4.5 9.9-9.9V15.4c0-5.4-4.4-9.9-9.9-9.9"/><path d="M32.1 42.2H15.9c-2 0-4-.7-6-2.1-2 1.4-5.1 2.1-8.9 2.1-.3 0-.6-.2-.7-.6-.1-.3.2-.7.5-.9 1.3-.6 4.4-2.7 4.4-6.7v-5.2-13.4C5.3 9.5 10 4.8 15.9 4.8h16.2c5.9 0 10.6 4.8 10.6 10.6v16.2c.1 5.9-4.7 10.6-10.6 10.6zM9.9 38.4c.2 0 .3.1.5.2 1.9 1.4 3.7 2.2 5.5 2.2h16.2c5 0 9.1-4.1 9.1-9.1V15.4c0-5-4.1-9.1-9.1-9.1H15.9c-5 0-9.1 4.1-9.1 9.1V34c0 3.1-1.5 5.3-3.1 6.6 2.5-.3 4.5-1 5.8-2 .1-.1.2-.2.4-.2z"/><path fill="#FEA980" d="M27.1 19.4v-5.9h-6.2v5.9H15v6.2h5.9v5.9h6.2v-5.9H33v-6.2z"/><path d="M33 18.6h-5.1v-5.1c0-.4-.3-.8-.8-.8h-6.2c-.4 0-.8.3-.8.8v5.1H15c-.4 0-.8.3-.8.8v6.2c0 .4.3.8.8.8h5.1v5.1c0 .4.3.8.8.8h6.2c.4 0 .8-.3.8-.8v-5.1H33c.4 0 .8-.3.8-.8v-6.2c0-.4-.4-.8-.8-.8zm-.8 6.3h-5.1c-.4 0-.8.3-.8.8v5.1h-4.7v-5.1c0-.4-.3-.8-.8-.8h-5.1v-4.7h5.1c.4 0 .8-.3.8-.8v-5.1h4.7v5.1c0 .4.3.8.8.8h5.1v4.7zM36.7 13.2c-.3 0-.6-.2-.7-.5-.4-1.4-1.5-2.4-2.7-2.6-.4 0-.7-.4-.7-.8s.4-.7.8-.7c1.8.2 3.4 1.6 4 3.6.1.4-.1.8-.5.9 0 .1-.1.1-.2.1z"/></svg>