<svg xmlns="http://www.w3.org/2000/svg" width="27" height="47"><path d="M4.2 41.5h19v-24h-19v24z" fill="#c9c9c9"/><path d="M10 35.5h13v-12H10v12z" fill="#fff"/><path d="M2.5 17.2h22.3c.3 0 .6-.3.6-.6V8.8c0-.3-.2-.6-.6-.6l-1.7-.1c-.3 0-.6-.3-.5-.7l.3-1.8c.1-.4-.2-.7-.6-.7L4 4.7c-.4 0-.6.3-.6.7l.3 1.8c.1.3-.1.6-.4.7l-.9.2c-.3.1-.5.3-.5.6v7.9c0 .3.3.6.6.6" fill="#eab7a7"/><path d="M25.2 7.3h-1.5V5.7c0-.7-.6-1.3-1.3-1.3H4.2C3.5 4.4 3 5 3 5.7v1.7h-.7C1.5 7.4.9 8 .9 8.8v8c0 .8.6 1.4 1.4 1.4h1.1v23.2c0 .7.6 1.3 1.3 1.3h18.1c.7 0 1.3-.6 1.3-1.3V18.1h1.1c.8 0 1.4-.6 1.4-1.4v-8c-.1-.7-.7-1.4-1.4-1.4zM4.5 5.9h17.7v1.5H4.5V5.9zm18 29.3H10.7V24.1h11.8v11.1zm0-12.7H10.7c-.8 0-1.5.7-1.5 1.5v11.1c0 .9.7 1.5 1.5 1.5h11.8V41H4.9V18h17.7v4.5h-.1zm2.5-5.9H2.4V8.8H25v7.8z"/></svg>