<svg baseProfile="tiny" xmlns="http://www.w3.org/2000/svg" width="40" height="47"><path fill="#D8EAE5" d="M31.4 11c-.1-5.4-4.5-9.8-9.9-9.8-3.9 0-7.3 2.2-8.9 5.5H12c-2.5 0-4.5 2-4.5 4.5v.4C6 12.6 5 14.3 5 16.2c0 3 2.4 5.5 5.5 5.5h18.9c3 0 5.5-2.4 5.5-5.5 0-2.4-1.4-4.4-3.5-5.2"/><path fill="#FFF" d="M1.1 45.8h10.4V30.3H1.1zM28.5 45.8h10.4V30.3H28.5zM14.8 45.8h10.4V30.3H14.8z"/><path fill="#C0A7C6" d="M8.3 34.5h-5c-.4 0-.8-.3-.8-.8s.4-.7.9-.7h5c.4 0 .8.3.8.8s-.5.7-.9.7zM8.3 37.9h-5c-.4 0-.8-.3-.8-.8s.3-.8.8-.8h5c.4 0 .8.3.8.8s-.4.8-.8.8zM5.3 40.8h-2c-.4 0-.8-.3-.8-.8s.3-.8.8-.8h2c.4 0 .8.3.8.8s-.3.8-.8.8zM22.6 37.9h-5c-.4 0-.8-.3-.8-.8s.3-.8.8-.8h5c.4 0 .8.3.8.8s-.4.8-.8.8zM21.1 40.8h-3.5c-.4 0-.8-.3-.8-.8s.3-.8.8-.8h3.5c.4 0 .8.3.8.8s-.4.8-.8.8zM32.8 34.5h-1.5c-.4 0-.8-.3-.8-.8s.3-.8.8-.8h1.5c.4 0 .8.3.8.8s-.3.8-.8.8zM36.3 37.9h-5c-.4 0-.8-.3-.8-.8s.3-.8.8-.8h5c.4 0 .8.3.8.8s-.4.8-.8.8zM36.1 40.8h-2.5c-.4 0-.8-.3-.8-.8s.3-.8.8-.8h2.5c.4 0 .8.3.8.8s-.4.8-.8.8z"/><path d="M38.9 29.6h-4.1v-3.8c0-.4-.3-.8-.8-.8H20.7v-2.7h8.8c3.4 0 6.2-2.8 6.2-6.2 0-2.4-1.4-4.6-3.5-5.6C31.9 4.9 27.2.4 21.5.4c-3.9 0-7.4 2.1-9.3 5.4h-.4c-2.9 0-5.2 2.3-5.2 5.2v.2c-1.5 1.2-2.3 2.9-2.3 4.8 0 3.4 2.8 6.2 6.2 6.2h8.6V25h-13c-.4 0-.8.3-.8.8v3.8H1.1c-.4 0-.8.3-.8.8v15.5c0 .4.3.8.8.8h10.4c.4 0 .8-.3.8-.8V30.3c0-.4-.3-.8-.8-.8H7v-3.1h12.2v3.1h-4.4c-.4 0-.8.3-.8.8v15.5c0 .4.3.8.8.8h10.4c.4 0 .8-.3.8-.8V30.3c0-.4-.3-.8-.8-.8h-4.5v-3.1h12.6v3.1h-4.8c-.4 0-.8.3-.8.8v15.5c0 .4.3.8.8.8h10.4c.4 0 .8-.3.8-.8V30.3c0-.4-.4-.7-.8-.7zM5.8 16.1c0-1.6.8-3.1 2.2-4 .2-.2.4-.4.3-.7v-.3C8.3 9 10 7.4 12 7.4h.7c1.7.4 2.9 1.9 2.9 3.6 0 .4.3.8.8.8s.8-.3.8-.8c0-2.2-1.4-4.1-3.3-4.8C15.4 3.6 18.3 2 21.5 2c5 0 9.1 4.1 9.2 9.1 0 .3.2.6.5.7 1.8.7 3 2.4 3 4.4 0 2.6-2.1 4.7-4.7 4.7h-19c-2.6-.1-4.7-2.2-4.7-4.8zm5 28.9h-9V31h8.9v14zm13.7 0h-8.9V31h8.9v14zm13.7 0h-8.9V31h8.9v14z"/></svg>