<svg xmlns="http://www.w3.org/2000/svg" width="39" height="47"><path d="M19.3 41.9c-4.1 0-8.1-1.4-11.4-3.9-.2-.2-.5-.2-.7-.1l-6 1.6 2-6.4c.1-.2 0-.4-.1-.6-5-8.9-1.8-20.2 7.1-25.2s20.2-1.8 25.2 7.1 1.8 20.2-7.1 25.2c-2.7 1.4-5.8 2.3-9 2.3" fill="#fff3b3"/><path d="M31.3 8.1C27.9 5.4 23.7 4 19.3 4 8.7 4 0 12.7 0 23.3c0 3.3.9 6.6 2.5 9.5L0 40.6l7.4-2c8.4 6.6 20.6 5.1 27.1-3.3 6.7-8.5 5.2-20.6-3.2-27.2zm-12 33c-4 0-7.8-1.3-10.9-3.8-.4-.3-.9-.4-1.4-.3l-4.6 1.2 1.6-5c.1-.4.1-.9-.1-1.3-4.8-8.5-1.8-19.3 6.8-24.1 2.6-1.5 5.6-2.3 8.7-2.3 9.8 0 17.7 7.9 17.7 17.7 0 9.9-8 17.9-17.8 17.9z"/><path d="M29.5 20.1c-.3 0-.6-.2-.7-.4-.3-.7-.8-1.2-1.5-1.5s-1.5-.3-2.3-.1c-.7.3-1.3.8-1.6 1.6-.2.4-.6.5-1 .4-.4-.2-.6-.6-.4-1 .5-1.1 1.4-1.9 2.5-2.4 1.1-.4 2.3-.4 3.4.1 1 .4 1.8 1.3 2.3 2.3.2.4 0 .8-.4 1h-.3zm-13.8 0c-.3 0-.5-.1-.7-.4-.3-.5-.7-.9-1.1-1.1-1.4-.8-3.2-.3-4 1.1-.2.4-.7.5-1 .3-.4-.2-.5-.7-.3-1 1.2-2.1 3.9-2.9 6.1-1.7.7.4 1.3 1 1.7 1.7.2.4.1.8-.3 1-.2 0-.3.1-.4.1z"/><path d="M19.3 34.9c-5.8 0-10.7-4.5-11.1-10.3h22.3c-.5 5.8-5.3 10.3-11.2 10.3" fill="#ecf0f1"/><path d="M31 24c-.1-.2-.3-.2-.5-.2H8.2c-.2 0-.4.1-.5.2-.1.2-.2.4-.2.6.5 6.2 5.7 11 11.9 11s11.4-4.9 11.9-11c-.1-.2-.1-.4-.3-.6zM19.3 34.2c-5.2 0-9.5-3.8-10.3-8.8h20.6c-.7 4.9-5.1 8.8-10.3 8.8z"/></svg>